*
*
G04 PADS 9.5 Build Number: 522968 generated Gerber (RS-274-X) file*
G04 PC Version=2.1*
*
%IN "Lock3_routedTry3_wPlane"*%
*
%MOIN*%
*
%FSLAX35Y35*%
*
*
*
*
G04 PC Standard Apertures*
*
*
G04 Thermal Relief Aperture macro.*
%AMTER*
1,1,$1,0,0*
1,0,$1-$2,0,0*
21,0,$3,$4,0,0,45*
21,0,$3,$4,0,0,135*
%
*
*
G04 Annular Aperture macro.*
%AMANN*
1,1,$1,0,0*
1,0,$2,0,0*
%
*
*
G04 Odd Aperture macro.*
%AMODD*
1,1,$1,0,0*
1,0,$1-0.005,0,0*
%
*
*
G04 PC Custom Aperture Macros*
*
*
*
*
*
*
G04 PC Aperture Table*
*
%ADD016C,0.05315*%
%ADD019C,0.03543*%
%ADD025R,0.05315X0.05315*%
%ADD028R,0.06299X0.06299*%
%ADD029C,0.06299*%
%ADD039C,0.01*%
%ADD043C,0.015*%
%ADD062C,0.036*%
%ADD076C,0.005*%
*
*
*
*
G04 PC Circuitry*
G04 Layer Name Lock3_routedTry3_wPlane - circuitry*
%LPD*%
*
*
G04 PC Custom Flashes*
G04 Layer Name Lock3_routedTry3_wPlane - flashes*
%LPD*%
*
*
G04 PC Circuitry*
G04 Layer Name Lock3_routedTry3_wPlane - circuitry*
%LPD*%
*
G54D16*
G01X131483Y107037D03*
X170606Y128794D03*
X266700Y246210D03*
X170863Y117494D03*
X241814Y271292D03*
Y263418D03*
Y255544D03*
Y247670D03*
Y239796D03*
Y231922D03*
Y224048D03*
Y216174D03*
Y208300D03*
X279122Y213959D03*
Y223959D03*
X154423Y141052D03*
Y131052D03*
X121483Y107037D03*
X155200Y216174D03*
Y224048D03*
Y231922D03*
Y239796D03*
Y247670D03*
Y255544D03*
Y263418D03*
Y271292D03*
Y279166D03*
G54D19*
X167678Y215269D03*
X177678D03*
X132229Y165662D03*
Y185662D03*
Y175662D03*
X187678Y215269D03*
G54D25*
X266700Y259990D03*
X241814Y279166D03*
X155200Y208300D03*
G54D28*
X194381Y165523D03*
X264025Y114391D03*
G54D29*
X194381Y155523D03*
X204381Y165523D03*
Y155523D03*
X214381Y165523D03*
Y155523D03*
X274025Y114391D03*
X264025Y124391D03*
X274025D03*
X264025Y134391D03*
X274025D03*
X264025Y144391D03*
X274025D03*
X264025Y154391D03*
X274025D03*
X264025Y164391D03*
X274025D03*
X264025Y174391D03*
X274025D03*
X264025Y184391D03*
X274025D03*
X264025Y194391D03*
X274025D03*
X264025Y204391D03*
X274025D03*
G54D39*
X270658Y246210D02*
G75*
G03X270658I-3958J0D01*
G01X254964Y204853D02*
G03X254964I-3100J0D01*
G01X226311Y165739D02*
G03X226311I-3100J0D01*
G01X218830Y165523D02*
G03X218830I-4449J0D01*
G01X223300Y186900D02*
G03X223300I-3100J0D01*
G01X225100Y204000D02*
G03X225100I-3100J0D01*
G01X203336Y175484D02*
G03X203336I-3100J0D01*
G01X204100Y187000D02*
G03X204100I-3100J0D01*
G01X196520Y179970D02*
G03X196520I-3100J0D01*
G01X196349Y186391D02*
G03X196349I-3100J0D01*
G01X187981Y172183D02*
G03X187981I-3100J0D01*
G01X190750Y215269D02*
G03X190750I-3072J0D01*
G01X181346Y156808D02*
G03X181346I-3100J0D01*
G01X181100Y167000D02*
G03X181100I-3100J0D01*
G01X182215Y202950D02*
G03X182215I-3100J0D01*
G01X178954Y208740D02*
G03X178954I-3100J0D01*
G01X180750Y215269D02*
G03X180750I-3072J0D01*
G01X184724Y227221D02*
G03X184724I-3100J0D01*
G01X170750Y215269D02*
G03X170750I-3072J0D01*
G01X158450Y154439D02*
G03X158450I-3100J0D01*
G01X163387Y158777D02*
G03X163387I-3100J0D01*
G01X152226Y157626D02*
G03X152226I-3100J0D01*
G01X146100Y165000D02*
G03X146100I-3100J0D01*
G01X148952Y209054D02*
G03X148952I-3100J0D01*
G01X145396Y215233D02*
G03X145396I-3100J0D01*
G01X142065Y220953D02*
G03X142065I-3100J0D01*
G01X247695Y136662D02*
G03X247695I-3100J0D01*
G01X225100Y110047D02*
G03X225100I-3100J0D01*
G01X184735Y112169D02*
G03X184735I-3100J0D01*
G01X174820Y117494D02*
G03X174820I-3957J0D01*
G01X135441Y107037D02*
G03X135441I-3958J0D01*
G01X125441D02*
G03X125441I-3958J0D01*
G01X131210Y122000D02*
G03X131210I-3100J0D01*
G01X126927Y175676D02*
G03X126927I-3100J0D01*
G01X278474Y134391D02*
G03X278474I-4449J0D01*
G01Y144391D02*
G03X278474I-4449J0D01*
G01Y154391D02*
G03X278474I-4449J0D01*
G01Y164391D02*
G03X278474I-4449J0D01*
G01Y174391D02*
G03X278474I-4449J0D01*
G01Y184391D02*
G03X278474I-4449J0D01*
G01Y194391D02*
G03X278474I-4449J0D01*
G01Y204391D02*
G03X278474I-4449J0D01*
G01X283079Y213959D02*
G03X283079I-3957J0D01*
G01Y223959D02*
G03X283079I-3957J0D01*
G01X268474Y134391D02*
G03X268474I-4449J0D01*
G01Y144391D02*
G03X268474I-4449J0D01*
G01Y154391D02*
G03X268474I-4449J0D01*
G01Y164391D02*
G03X268474I-4449J0D01*
G01Y174391D02*
G03X268474I-4449J0D01*
G01X254100Y154000D02*
G03X254100I-3100J0D01*
G01X257067Y160084D02*
G03X257067I-3100J0D01*
G01X249629Y159983D02*
G03X249629I-3100J0D01*
G01X124004Y224801D02*
G03X124004I-3100J0D01*
G01X210399Y151500D02*
X212480D01*
X210428Y153480D02*
G03X212480Y151500I3953J2043D01*
G01X210428Y153480D02*
X210399Y151500D01*
X271494Y240241D02*
Y252557D01*
X260836*
X255167Y242500*
X244704*
X242216Y235859D02*
G03X244704Y242500I-402J3937D01*
G01X242216Y227985D02*
G03Y235859I-402J3937D01*
G01Y220111D02*
G03Y227985I-402J3937D01*
G01Y212237D02*
G03Y220111I-402J3937D01*
G01X241412Y212237D02*
G03X242216I402J-3937D01*
G01X241412Y220111D02*
G03Y212237I402J-3937D01*
G01Y227985D02*
G03Y220111I402J-3937D01*
G01Y235859D02*
G03Y227985I402J-3937D01*
G01X238924Y242500D02*
G03X241412Y235859I2890J-2704D01*
G01X238924Y242500D02*
X187800D01*
X181984Y237956*
X178133Y234947D02*
G03X181984Y237956I3100J1D01*
G01X178133Y234947D02*
X177928Y234786D01*
X174260Y231921D02*
G03X177928Y234786I573J3046D01*
G01X174260Y231921D02*
X167738Y226825D01*
X158020*
X155602Y220111D02*
G03X158020Y226825I-402J3937D01*
G01X155768Y212258D02*
G03X155602Y220111I-568J3916D01*
G01X155768Y212258D02*
X157857D01*
X159158Y210957D02*
G03X157857Y212258I-1301J0D01*
G01X159158Y210957D02*
Y205643D01*
X157857Y204342D02*
G03X159158Y205643I0J1301D01*
G01X157857Y204342D02*
X152543D01*
X151242Y205643D02*
G03X152543Y204342I1301J-0D01*
G01X151242Y205643D02*
Y210957D01*
X152543Y212258D02*
G03X151242Y210957I-0J-1301D01*
G01X152543Y212258D02*
X154632D01*
X154798Y220111D02*
G03X154632Y212258I402J-3937D01*
G01X152380Y226825D02*
G03X154798Y220111I2820J-2777D01*
G01X152380Y226825D02*
X135847D01*
X131151D02*
G03X135847I2348J-2024D01*
G01X131151D02*
X130005D01*
X129500Y226320*
Y187072*
Y184252D02*
G03Y187072I2729J1410D01*
G01Y184252D02*
Y177072D01*
Y174252D02*
G03Y177072I2729J1410D01*
G01Y174252D02*
Y167072D01*
Y164252D02*
G03Y167072I2729J1410D01*
G01Y164252D02*
Y154879D01*
X143849Y144986*
Y140294*
Y134681D02*
G03Y140294I1317J2806D01*
G01Y134681D02*
Y127176D01*
X153624*
X155223D02*
G03X153624I-800J3876D01*
G01X155223D02*
X161442D01*
X162776Y128510*
X166659*
X174553Y128507D02*
G03X166659Y128510I-3947J287D01*
G01X174553Y128507D02*
X177766Y128500D01*
X206500*
Y119880*
Y116214D02*
G03Y119880I-2500J1833D01*
G01Y116214D02*
Y115499D01*
X235579Y115450*
X236870Y119910D02*
G03X235579Y115450I1328J-2801D01*
G01X239530Y119908D02*
G03X236870Y119910I-1328J2801D01*
G01X240811Y115441D02*
G03X239530Y119908I-2613J1668D01*
G01X240811Y115441D02*
X259575Y115409D01*
Y117540*
X260875Y118841D02*
G03X259575Y117540I0J-1301D01*
G01X260875Y118841D02*
X267174D01*
X267500Y118799D02*
G03X267174Y118841I-326J-1259D01*
G01X267500Y118799D02*
Y121612D01*
X260107Y126500D02*
G03X267500Y121612I3918J-2109D01*
G01X260107Y126500D02*
X249111D01*
Y139388*
Y145158D02*
G03Y139388I-1135J-2885D01*
G01Y145158D02*
Y145547D01*
X247585Y147073*
X229851*
X224349Y141571*
X205038*
X202851Y143362*
X201643Y144351D02*
G03X202851Y143362I-1297J-2816D01*
G01X201643Y144351D02*
X199018Y146500D01*
X182642*
Y156690*
Y161421D02*
G03Y156690I2004J-2366D01*
G01Y161421D02*
Y161500D01*
X182740*
X186552D02*
G03X182740I-1906J-2445D01*
G01X186552D02*
X190268D01*
X189931Y162373D02*
G03X190268Y161500I1300J0D01*
G01X189931Y162373D02*
Y168673D01*
X191231Y169973D02*
G03X189931Y168673I0J-1300D01*
G01X191231Y169973D02*
X197530D01*
X198830Y168673D02*
G03X197530Y169973I-1300J-0D01*
G01X198830Y168673D02*
Y162373D01*
X198493Y161500D02*
G03X198830Y162373I-963J873D01*
G01X198493Y161500D02*
X202480D01*
X206282D02*
G03X202480I-1901J4023D01*
G01X206282D02*
X210543D01*
X210488Y157679*
X216282Y151500D02*
G03X210488Y157679I-1901J4023D01*
G01X216282Y151500D02*
X221630D01*
X249141Y191500*
X250167*
X253833D02*
G03X250167I-1833J2500D01*
G01X253833D02*
X260642D01*
X267078Y197628D02*
G03X260642Y191500I-3053J-3237D01*
G01X267078Y197628D02*
X267003Y201085D01*
X266856Y207823D02*
G03X267003Y201085I-2831J-3432D01*
G01X266856Y207823D02*
X266215Y237417D01*
X271494Y240241*
X284200Y93610D02*
Y270760D01*
X245736*
X242216Y267355D02*
G03X245736Y270760I-402J3937D01*
G01X242216Y259481D02*
G03Y267355I-402J3937D01*
G01Y251607D02*
G03Y259481I-402J3937D01*
G01X244183Y244500D02*
G03X242216Y251607I-2369J3170D01*
G01X244183Y244500D02*
X254169D01*
X259838Y254557*
X273494*
Y238825*
X269500Y236004*
Y188500*
X267800*
X265732*
X262318D02*
G03X265732I1707J-4109D01*
G01X262318D02*
X250077D01*
X222567Y149500*
X208500*
Y153840*
X202482Y159547D02*
G03X208500Y153840I1899J-4024D01*
G01X202482Y159547D02*
X196180Y159593D01*
X192640Y159618D02*
G03X196180Y159593I1741J-4095D01*
G01X192640Y159618D02*
X187687Y159654D01*
X184500Y155959D02*
G03X187687Y159654I146J3096D01*
G01X184500Y155959D02*
Y148500D01*
X200179*
X206179Y143571*
X223520*
X229022Y149073*
X248413*
X249947Y147539*
X251111Y144542D02*
G03X249947Y147539I1889J2458D01*
G01X251111Y144542D02*
Y141199D01*
Y138815D02*
G03Y141199I2862J1192D01*
G01Y138815D02*
Y128500D01*
X262318*
X265732D02*
G03X262318I-1707J-4109D01*
G01X265732D02*
X270500D01*
Y127107*
Y121675D02*
G03Y127107I3525J2716D01*
G01Y121675D02*
Y117107D01*
X269688Y113394D02*
G03X270500Y117107I4337J997D01*
G01X269688Y113394D02*
X268474D01*
Y111241*
X267174Y109941D02*
G03X268474Y111241I0J1300D01*
G01X267174Y109941D02*
X260875D01*
X259575Y111241D02*
G03X260875Y109941I1300J0D01*
G01X259575Y111241D02*
Y113394D01*
X204205*
Y114954*
Y121140D02*
G03Y114954I-205J-3093D01*
G01Y121140D02*
Y125287D01*
X179859*
X177859Y126510*
X173838*
X167374D02*
G03X173838I3232J2284D01*
G01X167374D02*
X163604D01*
X162270Y125176*
X141849*
Y144046*
X127421Y153939*
Y183031*
X127421D02*
X113200D01*
Y137499*
Y135244D02*
G03Y137499I2888J1127D01*
G01Y135244D02*
Y93610D01*
X284200*
X241412Y267355D02*
G03Y259481I402J-3937D01*
G01X237893Y270760D02*
G03X241412Y267355I3921J532D01*
G01X237893Y270760D02*
X159122D01*
X155602Y267355D02*
G03X159122Y270760I-402J3937D01*
G01X155602Y259481D02*
G03Y267355I-402J3937D01*
G01Y251607D02*
G03Y259481I-402J3937D01*
G01Y243733D02*
G03Y251607I-402J3937D01*
G01Y235859D02*
G03Y243733I-402J3937D01*
G01X157664Y228825D02*
G03X155602Y235859I-2464J3097D01*
G01X157664Y228825D02*
X166979D01*
X172393Y233055*
X177279Y236872D02*
G03X172393Y233055I-2446J-1905D01*
G01X177279Y236872D02*
X187042Y244500D01*
X239445*
X241412Y251607D02*
G03X239445Y244500I402J-3937D01*
G01X241412Y259481D02*
G03Y251607I402J-3937D01*
G01X154798Y267355D02*
G03Y259481I402J-3937D01*
G01X151278Y270760D02*
G03X154798Y267355I3922J532D01*
G01X151278Y270760D02*
X113200D01*
Y184253*
X127500*
Y228392*
X127791Y228825*
X152736*
X154798Y235859D02*
G03X152736Y228825I402J-3937D01*
G01X154798Y243733D02*
G03Y235859I402J-3937D01*
G01Y251607D02*
G03Y243733I402J-3937D01*
G01Y259481D02*
G03Y251607I402J-3937D01*
G01X270658Y246210D02*
G03X270658I-3958J0D01*
G01X254964Y204853D02*
G03X254964I-3100J0D01*
G01X226311Y165739D02*
G03X226311I-3100J0D01*
G01X218830Y165523D02*
G03X218830I-4449J0D01*
G01X223300Y186900D02*
G03X223300I-3100J0D01*
G01X225100Y204000D02*
G03X225100I-3100J0D01*
G01X203336Y175484D02*
G03X203336I-3100J0D01*
G01X204100Y187000D02*
G03X204100I-3100J0D01*
G01X196520Y179970D02*
G03X196520I-3100J0D01*
G01X196349Y186391D02*
G03X196349I-3100J0D01*
G01X187981Y172183D02*
G03X187981I-3100J0D01*
G01X190750Y215269D02*
G03X190750I-3072J0D01*
G01X181346Y156808D02*
G03X181346I-3100J0D01*
G01X181100Y167000D02*
G03X181100I-3100J0D01*
G01X182215Y202950D02*
G03X182215I-3100J0D01*
G01X178954Y208740D02*
G03X178954I-3100J0D01*
G01X180750Y215269D02*
G03X180750I-3072J0D01*
G01X184724Y227221D02*
G03X184724I-3100J0D01*
G01X170750Y215269D02*
G03X170750I-3072J0D01*
G01X158318Y140348D02*
G03X157713Y143252I2363J2006D01*
X158318Y140348I-3290J-2200*
G01X158450Y154439D02*
G03X158450I-3100J0D01*
G01X163387Y158777D02*
G03X163387I-3100J0D01*
G01X152226Y157626D02*
G03X152226I-3100J0D01*
G01X146100Y165000D02*
G03X146100I-3100J0D01*
G01X148952Y209054D02*
G03X148952I-3100J0D01*
G01X145396Y215233D02*
G03X145396I-3100J0D01*
G01X142065Y220953D02*
G03X142065I-3100J0D01*
G01X247695Y136662D02*
G03X247695I-3100J0D01*
G01X225100Y110047D02*
G03X225100I-3100J0D01*
G01X184735Y112169D02*
G03X184735I-3100J0D01*
G01X174820Y117494D02*
G03X174820I-3957J0D01*
G01X135441Y107037D02*
G03X135441I-3958J0D01*
G01X125441D02*
G03X125441I-3958J0D01*
G01X131210Y122000D02*
G03X131210I-3100J0D01*
G01X126927Y175676D02*
G03X126927I-3100J0D01*
G01X278474Y134391D02*
G03X278474I-4449J0D01*
G01Y144391D02*
G03X278474I-4449J0D01*
G01Y154391D02*
G03X278474I-4449J0D01*
G01Y164391D02*
G03X278474I-4449J0D01*
G01Y174391D02*
G03X278474I-4449J0D01*
G01Y184391D02*
G03X278474I-4449J0D01*
G01Y194391D02*
G03X278474I-4449J0D01*
G01Y204391D02*
G03X278474I-4449J0D01*
G01X283079Y213959D02*
G03X283079I-3957J0D01*
G01Y223959D02*
G03X283079I-3957J0D01*
G01X268474Y134391D02*
G03X268474I-4449J0D01*
G01Y144391D02*
G03X268474I-4449J0D01*
G01Y154391D02*
G03X268474I-4449J0D01*
G01Y164391D02*
G03X268474I-4449J0D01*
G01Y174391D02*
G03X268474I-4449J0D01*
G01X254100Y154000D02*
G03X254100I-3100J0D01*
G01X257067Y160084D02*
G03X257067I-3100J0D01*
G01X249629Y159983D02*
G03X249629I-3100J0D01*
G01X270658Y262647D02*
Y257332D01*
X269357Y256032D02*
G03X270658Y257332I0J1300D01*
G01X269357Y256032D02*
X264043D01*
X262742Y257332D02*
G03X264043Y256032I1301J0D01*
G01X262742Y257332D02*
Y262647D01*
X264043Y263947D02*
G03X262742Y262647I-0J-1300D01*
G01X264043Y263947D02*
X269357D01*
X270658Y262647D02*
G03X269357Y263947I-1301J0D01*
G01X124004Y224801D02*
G03X124004I-3100J0D01*
G01X260632Y252194D02*
X271494D01*
X260124Y251294D02*
X271494D01*
X259617Y250394D02*
X271494D01*
X268909Y249494D02*
X271494D01*
X269859Y248594D02*
X271494D01*
X270369Y247694D02*
X271494D01*
X270614Y246794D02*
X271494D01*
X270645Y245894D02*
X271494D01*
X270466Y244994D02*
X271494D01*
X270044Y244094D02*
X271494D01*
X269262Y243194D02*
X271494D01*
X267269Y242294D02*
X271494D01*
X245435Y241394D02*
X271494D01*
X245710Y240494D02*
X271494D01*
X245767Y239594D02*
X270284D01*
X245615Y238694D02*
X268601D01*
X266644Y120794D02*
X267500D01*
X239559Y119894D02*
X267500D01*
X240659Y118994D02*
X267500D01*
X266335Y198194D02*
X267065D01*
X129500Y199094D02*
X267046D01*
X264707Y199994D02*
X267026D01*
X266776Y200894D02*
X267007D01*
X245228Y237794D02*
X266919D01*
X266492Y208094D02*
X266851D01*
X245710Y208994D02*
X266831D01*
X245437Y209894D02*
X266812D01*
X244887Y210794D02*
X266792D01*
X243850Y211694D02*
X266773D01*
X243501Y212594D02*
X266753D01*
X244726Y213494D02*
X266734D01*
X245349Y214394D02*
X266714D01*
X245673Y215294D02*
X266694D01*
X245772Y216194D02*
X266675D01*
X245663Y217094D02*
X266655D01*
X245328Y217994D02*
X266636D01*
X244689Y218894D02*
X266616D01*
X243414Y219794D02*
X266597D01*
X243915Y220694D02*
X266577D01*
X244919Y221594D02*
X266558D01*
X245454Y222494D02*
X266538D01*
X245717Y223394D02*
X266519D01*
X245764Y224294D02*
X266499D01*
X245602Y225194D02*
X266480D01*
X245202Y226094D02*
X266460D01*
X244457Y226994D02*
X266441D01*
X242748Y227894D02*
X266421D01*
X244238Y228794D02*
X266402D01*
X245085Y229694D02*
X266382D01*
X245542Y230594D02*
X266363D01*
X245748Y231494D02*
X266343D01*
X245743Y232394D02*
X266324D01*
X245526Y233294D02*
X266304D01*
X245055Y234194D02*
X266285D01*
X244181Y235094D02*
X266265D01*
X242912Y235994D02*
X266246D01*
X244505Y236894D02*
X266226D01*
X244884Y242294D02*
X266131D01*
X259110Y249494D02*
X264491D01*
X255558Y243194D02*
X264138D01*
X258602Y248594D02*
X263541D01*
X256066Y244094D02*
X263356D01*
X180048Y199994D02*
X263342D01*
X258095Y247694D02*
X263031D01*
X256573Y244994D02*
X262934D01*
X257588Y246794D02*
X262786D01*
X257080Y245894D02*
X262755D01*
X129500Y198194D02*
X261715D01*
X245766Y208094D02*
X261557D01*
X240640Y120794D02*
X261405D01*
X181435Y200894D02*
X261273D01*
X129500Y197294D02*
X260652D01*
X253896Y207194D02*
X260569D01*
X241131Y121694D02*
X260486D01*
X252369Y201794D02*
X260411D01*
X254275Y191894D02*
X260342D01*
X253970Y196394D02*
X260051D01*
X254609Y206294D02*
X260002D01*
X206500Y126194D02*
X259957D01*
X241300Y122594D02*
X259954D01*
X254089Y202694D02*
X259911D01*
X254856Y192794D02*
X259871D01*
X254716Y195494D02*
X259714D01*
X241137Y118094D02*
X259699D01*
X254916Y205394D02*
X259690D01*
X239913Y125294D02*
X259668D01*
X241201Y123494D02*
X259666D01*
X254697Y203594D02*
X259647D01*
X255085Y193694D02*
X259630D01*
X255043Y194594D02*
X259580D01*
X254943Y204494D02*
X259576D01*
X240804Y124394D02*
X259575D01*
X241297Y117194D02*
X259575D01*
X241189Y116294D02*
X259575D01*
X224178Y201794D02*
X251359D01*
X129500Y196394D02*
X250030D01*
X245614Y207194D02*
X249832D01*
X129500Y191894D02*
X249725D01*
X224811Y202694D02*
X249639D01*
X129500Y195494D02*
X249284D01*
X129500Y192794D02*
X249144D01*
X245226Y206294D02*
X249119D01*
X246846Y138794D02*
X249111D01*
X247440Y137894D02*
X249111D01*
X247678Y136994D02*
X249111D01*
X247643Y136094D02*
X249111D01*
X247325Y135194D02*
X249111D01*
X246595Y134294D02*
X249111D01*
X157614Y133394D02*
X249111D01*
X172012Y132494D02*
X249111D01*
X173403Y131594D02*
X249111D01*
X174078Y130694D02*
X249111D01*
X174435Y129794D02*
X249111D01*
X174562Y128894D02*
X249111D01*
X206500Y127994D02*
X249111D01*
X206500Y127094D02*
X249111D01*
X225073Y203594D02*
X249031D01*
X129500Y194594D02*
X248957D01*
X129500Y193694D02*
X248915D01*
X244501Y205394D02*
X248812D01*
X129500Y190994D02*
X248793D01*
X242898Y204494D02*
X248785D01*
X228771Y145994D02*
X248664D01*
X201195Y190094D02*
X248174D01*
X229671Y146894D02*
X247764D01*
X222285Y189194D02*
X247555D01*
X222969Y188294D02*
X246936D01*
X227871Y145094D02*
X246690D01*
X223260Y187394D02*
X246317D01*
X245243Y139694D02*
X246256D01*
X223273Y186494D02*
X245698D01*
X226971Y144194D02*
X245543D01*
X203300Y140594D02*
X245370D01*
X223011Y185594D02*
X245079D01*
X226071Y143294D02*
X245049D01*
X203446Y141494D02*
X244975D01*
X225171Y142394D02*
X244878D01*
X222378Y184694D02*
X244460D01*
X202840Y139694D02*
X243947D01*
X194941Y183794D02*
X243841D01*
X194451Y182894D02*
X243222D01*
X195768Y181994D02*
X242603D01*
X156694Y134294D02*
X242595D01*
X201794Y138794D02*
X242344D01*
X196309Y181094D02*
X241984D01*
X147252Y135194D02*
X241865D01*
X156808Y137894D02*
X241750D01*
X147935Y136094D02*
X241548D01*
X148226Y136994D02*
X241513D01*
X196512Y180194D02*
X241365D01*
X184650Y227894D02*
X240881D01*
X196445Y179294D02*
X240746D01*
X225060Y204494D02*
X240730D01*
X184151Y235994D02*
X240716D01*
X156799Y219794D02*
X240215D01*
X189187Y212594D02*
X240128D01*
X201305Y178394D02*
X240127D01*
X176793Y211694D02*
X239779D01*
X157300Y220694D02*
X239714D01*
X202596Y177494D02*
X239508D01*
X184329Y235094D02*
X239447D01*
X184295Y228794D02*
X239390D01*
X184715Y226994D02*
X239172D01*
X224769Y205394D02*
X239128D01*
X183646Y236894D02*
X239124D01*
X158075Y218894D02*
X238939D01*
X190185Y213494D02*
X238902D01*
X203131Y176594D02*
X238889D01*
X187537Y242294D02*
X238745D01*
X178175Y210794D02*
X238741D01*
X158305Y221594D02*
X238709D01*
X184240Y234194D02*
X238574D01*
X183493Y229694D02*
X238544D01*
X184512Y226094D02*
X238427D01*
X224085Y206294D02*
X238403D01*
X182462Y237794D02*
X238401D01*
X189096Y217994D02*
X238300D01*
X190622Y214394D02*
X238280D01*
X203329Y175694D02*
X238270D01*
X186385Y241394D02*
X238194D01*
X178731Y209894D02*
X238192D01*
X158840Y222494D02*
X238175D01*
X183855Y233294D02*
X238102D01*
X172562Y230594D02*
X238086D01*
X183969Y225194D02*
X238026D01*
X178541Y207194D02*
X238014D01*
X182929Y238694D02*
X238013D01*
X190149Y217094D02*
X237965D01*
X190750Y215294D02*
X237956D01*
X185233Y240494D02*
X237919D01*
X178943Y208994D02*
X237918D01*
X159103Y223394D02*
X237911D01*
X182990Y232394D02*
X237885D01*
X173713Y231494D02*
X237880D01*
X182645Y224294D02*
X237864D01*
X178886Y208094D02*
X237862D01*
X184081Y239594D02*
X237862D01*
X190607Y216194D02*
X237857D01*
X203259Y174794D02*
X237651D01*
X202898Y173894D02*
X237032D01*
X206500Y119894D02*
X236836D01*
X206500Y125294D02*
X236491D01*
X202083Y172994D02*
X236413D01*
X187980Y172094D02*
X235794D01*
X206500Y120794D02*
X235764D01*
X206952Y118994D02*
X235737D01*
X206500Y124394D02*
X235600D01*
X206500Y121694D02*
X235273D01*
X207100Y118094D02*
X235258D01*
X206557Y116294D02*
X235207D01*
X206500Y123494D02*
X235203D01*
X187819Y171194D02*
X235175D01*
X206500Y122594D02*
X235104D01*
X206980Y117194D02*
X235099D01*
X187339Y170294D02*
X234556D01*
X216575Y169394D02*
X233937D01*
X224633Y168494D02*
X233318D01*
X225695Y167594D02*
X232699D01*
X226160Y166694D02*
X232080D01*
X226310Y165794D02*
X231461D01*
X226193Y164894D02*
X230842D01*
X225773Y163994D02*
X230223D01*
X224827Y163094D02*
X229604D01*
X217333Y162194D02*
X228985D01*
X215764Y161294D02*
X228366D01*
X210527Y160394D02*
X227747D01*
X216389Y159494D02*
X227128D01*
X217601Y158594D02*
X226509D01*
X218265Y157694D02*
X225890D01*
X218645Y156794D02*
X225271D01*
X218815Y155894D02*
X224652D01*
X218799Y154994D02*
X224033D01*
X218595Y154094D02*
X223414D01*
X218172Y153194D02*
X222795D01*
X217442Y152294D02*
X222176D01*
X217693Y168494D02*
X221789D01*
X218109Y163094D02*
X221594D01*
X218319Y167594D02*
X220727D01*
X218559Y163994D02*
X220649D01*
X218674Y166694D02*
X220261D01*
X218786Y164894D02*
X220228D01*
X218822Y165794D02*
X220111D01*
X177758Y206294D02*
X219915D01*
X181991Y201794D02*
X219822D01*
X181022Y205394D02*
X219231D01*
X182204Y202694D02*
X219189D01*
X181803Y204494D02*
X218940D01*
X182147Y203594D02*
X218927D01*
X203190Y189194D02*
X218115D01*
X203072Y184694D02*
X218022D01*
X203817Y188294D02*
X217431D01*
X203763Y185594D02*
X217389D01*
X204075Y187394D02*
X217140D01*
X204058Y186494D02*
X217127D01*
X210540Y161294D02*
X212997D01*
X210514Y159494D02*
X212373D01*
X206575Y169394D02*
X212186D01*
X207333Y162194D02*
X211428D01*
X210501Y158594D02*
X211161D01*
X207693Y168494D02*
X211068D01*
X208109Y163094D02*
X210653D01*
X210488Y157694D02*
X210497D01*
X208319Y167594D02*
X210442D01*
X208559Y163994D02*
X210202D01*
X208674Y166694D02*
X210088D01*
X208786Y164894D02*
X209976D01*
X208822Y165794D02*
X209939D01*
X203325Y142394D02*
X204033D01*
X202899Y143294D02*
X202934D01*
X198612Y169394D02*
X202186D01*
X198818Y162194D02*
X201428D01*
X198830Y168494D02*
X201068D01*
X129500Y190094D02*
X200805D01*
X162132Y145094D02*
X200735D01*
X198830Y163094D02*
X200653D01*
X198830Y167594D02*
X200442D01*
X198830Y163994D02*
X200202D01*
X198830Y166694D02*
X200088D01*
X198830Y164894D02*
X199976D01*
X198830Y165794D02*
X199939D01*
X142388Y145994D02*
X199636D01*
X196089Y178394D02*
X199168D01*
X195843Y184694D02*
X198928D01*
X157673Y138794D02*
X198898D01*
X194574Y189194D02*
X198810D01*
X163176Y144194D02*
X198752D01*
X187873Y172994D02*
X198390D01*
X196245Y185594D02*
X198237D01*
X195697Y188294D02*
X198183D01*
X196348Y186494D02*
X197942D01*
X196183Y187394D02*
X197925D01*
X195285Y177494D02*
X197876D01*
X162272Y139694D02*
X197852D01*
X163635Y143294D02*
X197794D01*
X187467Y173894D02*
X197575D01*
X163232Y140594D02*
X197392D01*
X163781Y142394D02*
X197368D01*
X135156Y176594D02*
X197342D01*
X163659Y141494D02*
X197246D01*
X186553Y174794D02*
X197214D01*
X135300Y175694D02*
X197143D01*
X133560Y182894D02*
X192389D01*
X129500Y189194D02*
X191924D01*
X134667Y183794D02*
X191557D01*
X134695Y177494D02*
X191555D01*
X129500Y181994D02*
X191071D01*
X133813Y188294D02*
X190802D01*
X133634Y178394D02*
X190750D01*
X135144Y184694D02*
X190655D01*
X129500Y181094D02*
X190530D01*
X129500Y179294D02*
X190394D01*
X129500Y180194D02*
X190328D01*
X134766Y187394D02*
X190316D01*
X135300Y185594D02*
X190254D01*
X135186Y186494D02*
X190151D01*
X186233Y169394D02*
X190150D01*
X144318Y162194D02*
X189944D01*
X180716Y168494D02*
X189931D01*
X181043Y167594D02*
X189931D01*
X181085Y166694D02*
X189931D01*
X180856Y165794D02*
X189931D01*
X180275Y164894D02*
X189931D01*
X178757Y163994D02*
X189931D01*
X145445Y163094D02*
X189931D01*
X179096Y217994D02*
X186260D01*
X179187Y212594D02*
X186169D01*
X180149Y217094D02*
X185207D01*
X180185Y213494D02*
X185172D01*
X180607Y216194D02*
X184749D01*
X180622Y214394D02*
X184734D01*
X180750Y215294D02*
X184607D01*
X179970Y169394D02*
X183529D01*
X135175Y174794D02*
X183209D01*
X181208Y155894D02*
X182642D01*
X180760Y154994D02*
X182642D01*
X179744Y154094D02*
X182642D01*
X158189Y153194D02*
X182642D01*
X157588Y152294D02*
X182642D01*
X155931Y151394D02*
X182642D01*
X135860Y150494D02*
X182642D01*
X137166Y149594D02*
X182642D01*
X138471Y148694D02*
X182642D01*
X139777Y147794D02*
X182642D01*
X141082Y146894D02*
X182642D01*
X181346Y156794D02*
X182525D01*
X162096Y161294D02*
X182501D01*
X129500Y170294D02*
X182424D01*
X134740Y173894D02*
X182296D01*
X129500Y171194D02*
X181943D01*
X133750Y172994D02*
X181889D01*
X181216Y157694D02*
X181860D01*
X162932Y160394D02*
X181850D01*
X129500Y172094D02*
X181782D01*
X180779Y158594D02*
X181580D01*
X179793Y159494D02*
X181577D01*
X159150Y224294D02*
X180602D01*
X171410Y229694D02*
X179755D01*
X176561Y232394D02*
X179476D01*
X158988Y225194D02*
X179278D01*
X170258Y228794D02*
X178953D01*
X158588Y226094D02*
X178736D01*
X177442Y233294D02*
X178611D01*
X169106Y227894D02*
X178598D01*
X167954Y226994D02*
X178532D01*
X177835Y234194D02*
X178226D01*
X129500Y199994D02*
X178181D01*
X145932Y163994D02*
X177243D01*
X159134Y205394D02*
X177208D01*
X129500Y200894D02*
X176795D01*
X158431Y154094D02*
X176748D01*
X163303Y159494D02*
X176698D01*
X158466Y204494D02*
X176427D01*
X169096Y217994D02*
X176260D01*
X129500Y201794D02*
X176239D01*
X169187Y212594D02*
X176169D01*
X129500Y203594D02*
X176082D01*
X129500Y169394D02*
X176030D01*
X129500Y202694D02*
X176025D01*
X158400Y154994D02*
X175732D01*
X146098Y164894D02*
X175725D01*
X163382Y158594D02*
X175712D01*
X133419Y168494D02*
X175284D01*
X161428Y155894D02*
X175283D01*
X163192Y157694D02*
X175275D01*
X170149Y217094D02*
X175207D01*
X170185Y213494D02*
X175172D01*
X162670Y156794D02*
X175146D01*
X145997Y165794D02*
X175144D01*
X144698Y167594D02*
X174957D01*
X145596Y166694D02*
X174915D01*
X158929Y211694D02*
X174914D01*
X170607Y216194D02*
X174749D01*
X170622Y214394D02*
X174734D01*
X170750Y215294D02*
X174607D01*
X159158Y206294D02*
X173949D01*
X159158Y210794D02*
X173532D01*
X159158Y207194D02*
X173166D01*
X159158Y209894D02*
X172976D01*
X159158Y208094D02*
X172822D01*
X159158Y208994D02*
X172764D01*
X158109Y132494D02*
X169201D01*
X158344Y131594D02*
X167809D01*
X158365Y130694D02*
X167134D01*
X158175Y129794D02*
X166777D01*
X157740Y128894D02*
X166650D01*
X158714Y217994D02*
X166260D01*
X156887Y212594D02*
X166169D01*
X159049Y217094D02*
X165207D01*
X158112Y213494D02*
X165172D01*
X159157Y216194D02*
X164749D01*
X158735Y214394D02*
X164734D01*
X159058Y215294D02*
X164607D01*
X156935Y127994D02*
X162259D01*
X143693Y145094D02*
X159230D01*
X158088Y155894D02*
X159147D01*
X158140Y139694D02*
X159090D01*
X129500Y161294D02*
X158478D01*
X156830Y144194D02*
X158185D01*
X157367Y156794D02*
X157904D01*
X157685Y143294D02*
X157727D01*
X150522Y160394D02*
X157643D01*
X152225Y157694D02*
X157382D01*
X151600Y159494D02*
X157271D01*
X152071Y158594D02*
X157193D01*
X134555Y151394D02*
X154769D01*
X141841Y219794D02*
X153601D01*
X143923Y212594D02*
X153513D01*
X152112Y156794D02*
X153334D01*
X133249Y152294D02*
X153112D01*
X142054Y220694D02*
X153100D01*
X151697Y155894D02*
X152613D01*
X131944Y153194D02*
X152511D01*
X141283Y218894D02*
X152325D01*
X150764Y154994D02*
X152300D01*
X144863Y213494D02*
X152288D01*
X130638Y154094D02*
X152270D01*
X143849Y134294D02*
X152153D01*
X141998Y221594D02*
X152095D01*
X148239Y137894D02*
X152039D01*
X143849Y144194D02*
X152017D01*
X129500Y204494D02*
X151934D01*
X143849Y127994D02*
X151912D01*
X136316Y226094D02*
X151812D01*
X143706Y217994D02*
X151686D01*
X145281Y214394D02*
X151665D01*
X141655Y222494D02*
X151560D01*
X147477Y211694D02*
X151471D01*
X136574Y225194D02*
X151412D01*
X144776Y217094D02*
X151351D01*
X145396Y215294D02*
X151342D01*
X140876Y223394D02*
X151297D01*
X129500Y205394D02*
X151266D01*
X136557Y224294D02*
X151250D01*
X145244Y216194D02*
X151243D01*
X148418Y210794D02*
X151242D01*
X148836Y209894D02*
X151242D01*
X148952Y208994D02*
X151242D01*
X148800Y208094D02*
X151242D01*
X148333Y207194D02*
X151242D01*
X147265Y206294D02*
X151242D01*
X143849Y133394D02*
X151233D01*
X147977Y138794D02*
X151173D01*
X143849Y143294D02*
X151162D01*
X143849Y128894D02*
X151106D01*
X143849Y132494D02*
X150738D01*
X147343Y139694D02*
X150706D01*
X143849Y142394D02*
X150700D01*
X143849Y129794D02*
X150671D01*
X143849Y131594D02*
X150503D01*
X143849Y140594D02*
X150492D01*
X143849Y141494D02*
X150490D01*
X143849Y130694D02*
X150482D01*
X129500Y160394D02*
X147730D01*
X129500Y154994D02*
X147488D01*
X129500Y159494D02*
X146652D01*
X129500Y155894D02*
X146555D01*
X129500Y158594D02*
X146181D01*
X129500Y156794D02*
X146140D01*
X129500Y157694D02*
X146027D01*
X129500Y206294D02*
X144440D01*
X129500Y211694D02*
X144228D01*
X129500Y207194D02*
X143372D01*
X129500Y210794D02*
X143287D01*
X129500Y208094D02*
X142905D01*
X129500Y209894D02*
X142868D01*
X129500Y208994D02*
X142753D01*
X129500Y162194D02*
X141682D01*
X134617Y167594D02*
X141302D01*
X139890Y217994D02*
X140887D01*
X129500Y212594D02*
X140670D01*
X133914Y163094D02*
X140555D01*
X135122Y166694D02*
X140404D01*
X134808Y163994D02*
X140068D01*
X135298Y165794D02*
X140003D01*
X135203Y164894D02*
X139902D01*
X129500Y217094D02*
X139817D01*
X129500Y213494D02*
X139730D01*
X129500Y216194D02*
X139349D01*
X129500Y214394D02*
X139312D01*
X129500Y215294D02*
X139197D01*
X129500Y217994D02*
X138041D01*
X136261Y223394D02*
X137054D01*
X129500Y218894D02*
X136648D01*
X135570Y222494D02*
X136275D01*
X129500Y219794D02*
X136090D01*
X129500Y221594D02*
X135932D01*
X129500Y220694D02*
X135876D01*
X129500Y222494D02*
X131428D01*
X129500Y168494D02*
X131038D01*
X129500Y182894D02*
X130898D01*
X129500Y178394D02*
X130824D01*
X129500Y223394D02*
X130736D01*
X129500Y172994D02*
X130707D01*
X129500Y226094D02*
X130681D01*
X129500Y188294D02*
X130645D01*
X129500Y163094D02*
X130544D01*
X129500Y224294D02*
X130441D01*
X129500Y225194D02*
X130424D01*
X129500Y167594D02*
X129841D01*
X129500Y183794D02*
X129791D01*
X129500Y177494D02*
X129763D01*
X129500Y173894D02*
X129717D01*
X129500Y187394D02*
X129692D01*
X129500Y163994D02*
X129650D01*
X210411Y152294D02*
X211319D01*
X210424Y153194D02*
X210589D01*
X113200Y267309D02*
X154477D01*
X113200Y235809D02*
X154456D01*
X113200Y243909D02*
X153969D01*
X113200Y259209D02*
X153706D01*
X113200Y252009D02*
X153421D01*
X113200Y251109D02*
X153241D01*
X113200Y260109D02*
X153029D01*
X113200Y243009D02*
X152889D01*
X113200Y236709D02*
X152724D01*
X113200Y268209D02*
X152719D01*
X113200Y266409D02*
X152608D01*
X113200Y234909D02*
X152604D01*
X113200Y244809D02*
X152466D01*
X113200Y258309D02*
X152368D01*
X113200Y252909D02*
X152247D01*
X113200Y250209D02*
X152164D01*
X113200Y229509D02*
X152063D01*
X113200Y261009D02*
X152060D01*
X113200Y242109D02*
X151989D01*
X113200Y237609D02*
X151902D01*
X113200Y269109D02*
X151899D01*
X113200Y265509D02*
X151840D01*
X113200Y234009D02*
X151837D01*
X113200Y245709D02*
X151763D01*
X113200Y257409D02*
X151709D01*
X113200Y253809D02*
X151643D01*
X113200Y249309D02*
X151598D01*
X113200Y230409D02*
X151543D01*
X113200Y261909D02*
X151542D01*
X113200Y241209D02*
X151503D01*
X113200Y238509D02*
X151458D01*
X113200Y270009D02*
X151456D01*
X113200Y264609D02*
X151426D01*
X113200Y233109D02*
X151425D01*
X113200Y246609D02*
X151387D01*
X113200Y256509D02*
X151362D01*
X113200Y254709D02*
X151332D01*
X113200Y248409D02*
X151312D01*
X113200Y231309D02*
X151290D01*
X113200Y262809D02*
X151290D01*
X113200Y240309D02*
X151276D01*
X113200Y239409D02*
X151261D01*
X113200Y263709D02*
X151253D01*
X113200Y232209D02*
X151253D01*
X113200Y247509D02*
X151246D01*
X113200Y255609D02*
X151243D01*
X113200Y228609D02*
X127646D01*
X113200Y184509D02*
X127500D01*
X113200Y185409D02*
X127500D01*
X113200Y186309D02*
X127500D01*
X113200Y187209D02*
X127500D01*
X113200Y188109D02*
X127500D01*
X113200Y189009D02*
X127500D01*
X113200Y189909D02*
X127500D01*
X113200Y190809D02*
X127500D01*
X113200Y191709D02*
X127500D01*
X113200Y192609D02*
X127500D01*
X113200Y193509D02*
X127500D01*
X113200Y194409D02*
X127500D01*
X113200Y195309D02*
X127500D01*
X113200Y196209D02*
X127500D01*
X113200Y197109D02*
X127500D01*
X113200Y198009D02*
X127500D01*
X113200Y198909D02*
X127500D01*
X113200Y199809D02*
X127500D01*
X113200Y200709D02*
X127500D01*
X113200Y201609D02*
X127500D01*
X113200Y202509D02*
X127500D01*
X113200Y203409D02*
X127500D01*
X113200Y204309D02*
X127500D01*
X113200Y205209D02*
X127500D01*
X113200Y206109D02*
X127500D01*
X113200Y207009D02*
X127500D01*
X113200Y207909D02*
X127500D01*
X113200Y208809D02*
X127500D01*
X113200Y209709D02*
X127500D01*
X113200Y210609D02*
X127500D01*
X113200Y211509D02*
X127500D01*
X113200Y212409D02*
X127500D01*
X113200Y213309D02*
X127500D01*
X113200Y214209D02*
X127500D01*
X113200Y215109D02*
X127500D01*
X113200Y216009D02*
X127500D01*
X113200Y216909D02*
X127500D01*
X113200Y217809D02*
X127500D01*
X113200Y218709D02*
X127500D01*
X113200Y219609D02*
X127500D01*
X113200Y220509D02*
X127500D01*
X113200Y221409D02*
X127500D01*
X122748Y222309D02*
X127500D01*
X123564Y223209D02*
X127500D01*
X123926Y224109D02*
X127500D01*
X123997Y225009D02*
X127500D01*
X123800Y225909D02*
X127500D01*
X123266Y226809D02*
X127500D01*
X121978Y227709D02*
X127500D01*
X113200D02*
X119830D01*
X113200Y222309D02*
X119060D01*
X113200Y226809D02*
X118543D01*
X113200Y223209D02*
X118244D01*
X113200Y225909D02*
X118009D01*
X113200Y224109D02*
X117883D01*
X113200Y225009D02*
X117811D01*
X155923Y267309D02*
X241091D01*
X156694Y259209D02*
X240321D01*
X156979Y252009D02*
X240035D01*
X157159Y251109D02*
X239856D01*
X157371Y260109D02*
X239644D01*
X157681Y268209D02*
X239333D01*
X157792Y266409D02*
X239222D01*
X157934Y244809D02*
X239080D01*
X158032Y258309D02*
X238983D01*
X158153Y252909D02*
X238862D01*
X158236Y250209D02*
X238778D01*
X158340Y261009D02*
X238674D01*
X158501Y269109D02*
X238513D01*
X158560Y265509D02*
X238454D01*
X158637Y245709D02*
X238377D01*
X158691Y257409D02*
X238324D01*
X158757Y253809D02*
X238257D01*
X158802Y249309D02*
X238212D01*
X158858Y261909D02*
X238156D01*
X158944Y270009D02*
X238070D01*
X158974Y264609D02*
X238040D01*
X159013Y246609D02*
X238002D01*
X159038Y256509D02*
X237976D01*
X159068Y254709D02*
X237946D01*
X159088Y248409D02*
X237926D01*
X159110Y262809D02*
X237904D01*
X159147Y263709D02*
X237867D01*
X159154Y247509D02*
X237860D01*
X159157Y255609D02*
X237857D01*
X156431Y243909D02*
X186285D01*
X157511Y243009D02*
X185133D01*
X158411Y242109D02*
X183981D01*
X158897Y241209D02*
X182830D01*
X159124Y240309D02*
X181678D01*
X159139Y239409D02*
X180526D01*
X158942Y238509D02*
X179374D01*
X176455Y237609D02*
X178222D01*
X158498D02*
X173210D01*
X158975Y233109D02*
X172352D01*
X157676Y236709D02*
X172268D01*
X158563Y234009D02*
X171885D01*
X155944Y235809D02*
X171849D01*
X157796Y234909D02*
X171733D01*
X159147Y232209D02*
X171310D01*
X159110Y231309D02*
X170158D01*
X158857Y230409D02*
X169006D01*
X158337Y229509D02*
X167854D01*
X245558Y270009D02*
X284200D01*
X245115Y269109D02*
X284200D01*
X244295Y268209D02*
X284200D01*
X242538Y267309D02*
X284200D01*
X244406Y266409D02*
X284200D01*
X245174Y265509D02*
X284200D01*
X245588Y264609D02*
X284200D01*
X270108Y263709D02*
X284200D01*
X270647Y262809D02*
X284200D01*
X270658Y261909D02*
X284200D01*
X270658Y261009D02*
X284200D01*
X270658Y260109D02*
X284200D01*
X270658Y259209D02*
X284200D01*
X270658Y258309D02*
X284200D01*
X270658Y257409D02*
X284200D01*
X270364Y256509D02*
X284200D01*
X245771Y255609D02*
X284200D01*
X245683Y254709D02*
X284200D01*
X273494Y253809D02*
X284200D01*
X273494Y252909D02*
X284200D01*
X273494Y252009D02*
X284200D01*
X273494Y251109D02*
X284200D01*
X273494Y250209D02*
X284200D01*
X273494Y249309D02*
X284200D01*
X273494Y248409D02*
X284200D01*
X273494Y247509D02*
X284200D01*
X273494Y246609D02*
X284200D01*
X273494Y245709D02*
X284200D01*
X273494Y244809D02*
X284200D01*
X273494Y243909D02*
X284200D01*
X273494Y243009D02*
X284200D01*
X273494Y242109D02*
X284200D01*
X273494Y241209D02*
X284200D01*
X273494Y240309D02*
X284200D01*
X273494Y239409D02*
X284200D01*
X273047Y238509D02*
X284200D01*
X271773Y237609D02*
X284200D01*
X270498Y236709D02*
X284200D01*
X269500Y235809D02*
X284200D01*
X269500Y234909D02*
X284200D01*
X269500Y234009D02*
X284200D01*
X269500Y233109D02*
X284200D01*
X269500Y232209D02*
X284200D01*
X269500Y231309D02*
X284200D01*
X269500Y230409D02*
X284200D01*
X269500Y229509D02*
X284200D01*
X269500Y228609D02*
X284200D01*
X280388Y227709D02*
X284200D01*
X281868Y226809D02*
X284200D01*
X282566Y225909D02*
X284200D01*
X282938Y225009D02*
X284200D01*
X283077Y224109D02*
X284200D01*
X283008Y223209D02*
X284200D01*
X282719Y222309D02*
X284200D01*
X282148Y221409D02*
X284200D01*
X281060Y220509D02*
X284200D01*
X269500Y219609D02*
X284200D01*
X269500Y218709D02*
X284200D01*
X280040Y217809D02*
X284200D01*
X281760Y216909D02*
X284200D01*
X282507Y216009D02*
X284200D01*
X282909Y215109D02*
X284200D01*
X283072Y214209D02*
X284200D01*
X283026Y213309D02*
X284200D01*
X282763Y212409D02*
X284200D01*
X282230Y211509D02*
X284200D01*
X281228Y210609D02*
X284200D01*
X269500Y209709D02*
X284200D01*
X274554Y208809D02*
X284200D01*
X276749Y207909D02*
X284200D01*
X277623Y207009D02*
X284200D01*
X278129Y206109D02*
X284200D01*
X278398Y205209D02*
X284200D01*
X278474Y204309D02*
X284200D01*
X278365Y203409D02*
X284200D01*
X278057Y202509D02*
X284200D01*
X277497Y201609D02*
X284200D01*
X276523Y200709D02*
X284200D01*
X269500Y199809D02*
X284200D01*
X269500Y198909D02*
X284200D01*
X276615Y198009D02*
X284200D01*
X277548Y197109D02*
X284200D01*
X278086Y196209D02*
X284200D01*
X278379Y195309D02*
X284200D01*
X278474Y194409D02*
X284200D01*
X278386Y193509D02*
X284200D01*
X278102Y192609D02*
X284200D01*
X277575Y191709D02*
X284200D01*
X276664Y190809D02*
X284200D01*
X269500Y189909D02*
X284200D01*
X269500Y189009D02*
X284200D01*
X276469Y188109D02*
X284200D01*
X277468Y187209D02*
X284200D01*
X278040Y186309D02*
X284200D01*
X278356Y185409D02*
X284200D01*
X278473Y184509D02*
X284200D01*
X278405Y183609D02*
X284200D01*
X278144Y182709D02*
X284200D01*
X277649Y181809D02*
X284200D01*
X276795Y180909D02*
X284200D01*
X274798Y180009D02*
X284200D01*
X243453Y179109D02*
X284200D01*
X276310Y178209D02*
X284200D01*
X277384Y177309D02*
X284200D01*
X277990Y176409D02*
X284200D01*
X278332Y175509D02*
X284200D01*
X278469Y174609D02*
X284200D01*
X278422Y173709D02*
X284200D01*
X278184Y172809D02*
X284200D01*
X277718Y171909D02*
X284200D01*
X276916Y171009D02*
X284200D01*
X275235Y170109D02*
X284200D01*
X236469Y169209D02*
X284200D01*
X276134Y168309D02*
X284200D01*
X277294Y167409D02*
X284200D01*
X277938Y166509D02*
X284200D01*
X278304Y165609D02*
X284200D01*
X278463Y164709D02*
X284200D01*
X278436Y163809D02*
X284200D01*
X278220Y162909D02*
X284200D01*
X277783Y162009D02*
X284200D01*
X277029Y161109D02*
X284200D01*
X275545Y160209D02*
X284200D01*
X256968Y159309D02*
X284200D01*
X275936Y158409D02*
X284200D01*
X277199Y157509D02*
X284200D01*
X277882Y156609D02*
X284200D01*
X278275Y155709D02*
X284200D01*
X278455Y154809D02*
X284200D01*
X278448Y153909D02*
X284200D01*
X278254Y153009D02*
X284200D01*
X277845Y152109D02*
X284200D01*
X277135Y151209D02*
X284200D01*
X275796Y150309D02*
X284200D01*
X254951Y149409D02*
X284200D01*
X275710Y148509D02*
X284200D01*
X277098Y147609D02*
X284200D01*
X277823Y146709D02*
X284200D01*
X278242Y145809D02*
X284200D01*
X278444Y144909D02*
X284200D01*
X278458Y144009D02*
X284200D01*
X278286Y143109D02*
X284200D01*
X277903Y142209D02*
X284200D01*
X277234Y141309D02*
X284200D01*
X276010Y140409D02*
X284200D01*
X257032Y139509D02*
X284200D01*
X275441Y138609D02*
X284200D01*
X276989Y137709D02*
X284200D01*
X277760Y136809D02*
X284200D01*
X278207Y135909D02*
X284200D01*
X278431Y135009D02*
X284200D01*
X278465Y134109D02*
X284200D01*
X278314Y133209D02*
X284200D01*
X277957Y132309D02*
X284200D01*
X277327Y131409D02*
X284200D01*
X276199Y130509D02*
X284200D01*
X251111Y129609D02*
X284200D01*
X275099Y128709D02*
X284200D01*
X276874Y127809D02*
X284200D01*
X277693Y126909D02*
X284200D01*
X278170Y126009D02*
X284200D01*
X278416Y125109D02*
X284200D01*
X278471Y124209D02*
X284200D01*
X278341Y123309D02*
X284200D01*
X278008Y122409D02*
X284200D01*
X277415Y121509D02*
X284200D01*
X276369Y120609D02*
X284200D01*
X270500Y119709D02*
X284200D01*
X274554Y118809D02*
X284200D01*
X276749Y117909D02*
X284200D01*
X277623Y117009D02*
X284200D01*
X278129Y116109D02*
X284200D01*
X278398Y115209D02*
X284200D01*
X278474Y114309D02*
X284200D01*
X278365Y113409D02*
X284200D01*
X278057Y112509D02*
X284200D01*
X277497Y111609D02*
X284200D01*
X276523Y110709D02*
X284200D01*
X225091Y109809D02*
X284200D01*
X224883Y108909D02*
X284200D01*
X224336Y108009D02*
X284200D01*
X222988Y107109D02*
X284200D01*
X135353Y106209D02*
X284200D01*
X135044Y105309D02*
X284200D01*
X134442Y104409D02*
X284200D01*
X133276Y103509D02*
X284200D01*
X113200Y102609D02*
X284200D01*
X113200Y101709D02*
X284200D01*
X113200Y100809D02*
X284200D01*
X113200Y99909D02*
X284200D01*
X113200Y99009D02*
X284200D01*
X113200Y98109D02*
X284200D01*
X113200Y97209D02*
X284200D01*
X113200Y96309D02*
X284200D01*
X113200Y95409D02*
X284200D01*
X113200Y94509D02*
X284200D01*
X269500Y217809D02*
X278204D01*
X269500Y227709D02*
X277856D01*
X269500Y220509D02*
X277184D01*
X269500Y210609D02*
X277016D01*
X269500Y216909D02*
X276483D01*
X269500Y226809D02*
X276376D01*
X269500Y221409D02*
X276096D01*
X269500Y211509D02*
X276014D01*
X269500Y216009D02*
X275737D01*
X269500Y225909D02*
X275678D01*
X269500Y222309D02*
X275525D01*
X269500Y212409D02*
X275481D01*
X269500Y215109D02*
X275335D01*
X269500Y225009D02*
X275306D01*
X269500Y223209D02*
X275236D01*
X269500Y213309D02*
X275218D01*
X269500Y214209D02*
X275172D01*
X269500Y224109D02*
X275167D01*
X269500Y208809D02*
X273495D01*
X270500Y118809D02*
X273495D01*
X264798Y180009D02*
X273252D01*
X265099Y128709D02*
X272951D01*
X265235Y170109D02*
X272815D01*
X265441Y138609D02*
X272608D01*
X265545Y160209D02*
X272505D01*
X265710Y148509D02*
X272339D01*
X265796Y150309D02*
X272254D01*
X265936Y158409D02*
X272113D01*
X266010Y140409D02*
X272039D01*
X266134Y168309D02*
X271916D01*
X266199Y130509D02*
X271850D01*
X266310Y178209D02*
X271740D01*
X270500Y120609D02*
X271680D01*
X266469Y188109D02*
X271580D01*
X269500Y200709D02*
X271526D01*
X268360Y110709D02*
X271526D01*
X269500Y198009D02*
X271434D01*
X269500Y190809D02*
X271385D01*
X269500Y207909D02*
X271300D01*
X270500Y117909D02*
X271300D01*
X266795Y180909D02*
X271254D01*
X270500Y127809D02*
X271176D01*
X266916Y171009D02*
X271133D01*
X266989Y137709D02*
X271060D01*
X267029Y161109D02*
X271020D01*
X267098Y147609D02*
X270952D01*
X267135Y151209D02*
X270914D01*
X267199Y157509D02*
X270850D01*
X267234Y141309D02*
X270815D01*
X267294Y167409D02*
X270755D01*
X267327Y131409D02*
X270722D01*
X267384Y177309D02*
X270665D01*
X270500Y121509D02*
X270634D01*
X267468Y187209D02*
X270581D01*
X269500Y201609D02*
X270552D01*
X268474Y111609D02*
X270552D01*
X269500Y197109D02*
X270502D01*
X269500Y191709D02*
X270474D01*
X269500Y207009D02*
X270427D01*
X267649Y181809D02*
X270401D01*
X267718Y171909D02*
X270332D01*
X267760Y136809D02*
X270289D01*
X267783Y162009D02*
X270266D01*
X267823Y146709D02*
X270227D01*
X267845Y152109D02*
X270205D01*
X267882Y156609D02*
X270167D01*
X267903Y142209D02*
X270147D01*
X267938Y166509D02*
X270111D01*
X267957Y132309D02*
X270092D01*
X267990Y176409D02*
X270059D01*
X268040Y186309D02*
X270010D01*
X269500Y202509D02*
X269993D01*
X268474Y112509D02*
X269993D01*
X269500Y196209D02*
X269963D01*
X269500Y192609D02*
X269947D01*
X269500Y206109D02*
X269920D01*
X268144Y182709D02*
X269905D01*
X268184Y172809D02*
X269866D01*
X268207Y135909D02*
X269842D01*
X268220Y162909D02*
X269829D01*
X268242Y145809D02*
X269807D01*
X268254Y153009D02*
X269795D01*
X268275Y155709D02*
X269775D01*
X268286Y143109D02*
X269764D01*
X268304Y165609D02*
X269745D01*
X268314Y133209D02*
X269735D01*
X268332Y175509D02*
X269718D01*
X268356Y185409D02*
X269693D01*
X269500Y203409D02*
X269685D01*
X269500Y195309D02*
X269671D01*
X269500Y193509D02*
X269663D01*
X269500Y205209D02*
X269651D01*
X268405Y183609D02*
X269644D01*
X268422Y173709D02*
X269628D01*
X268431Y135009D02*
X269618D01*
X268436Y163809D02*
X269613D01*
X268444Y144909D02*
X269605D01*
X268448Y153909D02*
X269601D01*
X268455Y154809D02*
X269595D01*
X268458Y144009D02*
X269591D01*
X268463Y164709D02*
X269586D01*
X268465Y134109D02*
X269584D01*
X268469Y174609D02*
X269580D01*
X268473Y184509D02*
X269577D01*
X269500Y204309D02*
X269576D01*
X269500Y194409D02*
X269575D01*
X245761Y263709D02*
X263292D01*
X244087Y180009D02*
X263252D01*
X245652Y256509D02*
X263036D01*
X251111Y128709D02*
X262951D01*
X237104Y170109D02*
X262815D01*
X245725Y262809D02*
X262753D01*
X245473Y261909D02*
X262742D01*
X244954Y261009D02*
X262742D01*
X243985Y260109D02*
X262742D01*
X243308Y259209D02*
X262742D01*
X244646Y258309D02*
X262742D01*
X245305Y257409D02*
X262742D01*
X256739Y138609D02*
X262608D01*
X257064Y160209D02*
X262505D01*
X255708Y148509D02*
X262339D01*
X223137Y150309D02*
X262254D01*
X256575Y158409D02*
X262113D01*
X257046Y140409D02*
X262039D01*
X235834Y168309D02*
X261916D01*
X251111Y130509D02*
X261850D01*
X242818Y178209D02*
X261740D01*
X249801Y188109D02*
X261580D01*
X244722Y180909D02*
X261254D01*
X237739Y171009D02*
X261133D01*
X256053Y137709D02*
X261060D01*
X256892Y161109D02*
X261020D01*
X256040Y147609D02*
X260952D01*
X252349Y151209D02*
X260914D01*
X255692Y157509D02*
X260850D01*
X256786Y141309D02*
X260815D01*
X235200Y167409D02*
X260755D01*
X251111Y131409D02*
X260722D01*
X242183Y177309D02*
X260665D01*
X249166Y187209D02*
X260581D01*
X245357Y181809D02*
X260401D01*
X238374Y171909D02*
X260332D01*
X251111Y136809D02*
X260289D01*
X256397Y162009D02*
X260266D01*
X256086Y146709D02*
X260227D01*
X253456Y152109D02*
X260205D01*
X252674Y156609D02*
X260167D01*
X256155Y142209D02*
X260147D01*
X234565Y166509D02*
X260111D01*
X251111Y132309D02*
X260092D01*
X241548Y176409D02*
X260059D01*
X248531Y186309D02*
X260010D01*
X245992Y182709D02*
X259905D01*
X239009Y172809D02*
X259866D01*
X251111Y135909D02*
X259842D01*
X255244Y162909D02*
X259829D01*
X255862Y145809D02*
X259807D01*
X253937Y153009D02*
X259795D01*
X253586Y155709D02*
X259775D01*
X251111Y143109D02*
X259764D01*
X233930Y165609D02*
X259745D01*
X251111Y133209D02*
X259735D01*
X240913Y175509D02*
X259718D01*
X247897Y185409D02*
X259693D01*
X225029Y110709D02*
X259689D01*
X246627Y183609D02*
X259644D01*
X239644Y173709D02*
X259628D01*
X251111Y135009D02*
X259618D01*
X232660Y163809D02*
X259613D01*
X255289Y144909D02*
X259605D01*
X254099Y153909D02*
X259601D01*
X253993Y154809D02*
X259595D01*
X253815Y144009D02*
X259591D01*
X233295Y164709D02*
X259586D01*
X251111Y134109D02*
X259584D01*
X240278Y174609D02*
X259580D01*
X247262Y184509D02*
X259577D01*
X223884Y112509D02*
X259575D01*
X224678Y111609D02*
X259575D01*
X245371Y253809D02*
X259416D01*
X244767Y252909D02*
X258909D01*
X243593Y252009D02*
X258402D01*
X243773Y251109D02*
X257894D01*
X244850Y250209D02*
X257387D01*
X245416Y249309D02*
X256880D01*
X245702Y248409D02*
X256372D01*
X245768Y247509D02*
X255865D01*
X245627Y246609D02*
X255358D01*
X245252Y245709D02*
X254850D01*
X244548Y244809D02*
X254343D01*
X247553Y162909D02*
X252689D01*
X248396Y157509D02*
X252241D01*
X251111Y144009D02*
X252185D01*
X251111Y137709D02*
X251892D01*
X251111Y142209D02*
X251791D01*
X248875Y162009D02*
X251536D01*
X249199Y158409D02*
X251358D01*
X251111Y138609D02*
X251206D01*
X251111Y141309D02*
X251159D01*
X184500Y149409D02*
X251049D01*
X249417Y161109D02*
X251041D01*
X249555Y159309D02*
X250965D01*
X249621Y160209D02*
X250869D01*
X248978Y148509D02*
X250292D01*
X249878Y147609D02*
X249960D01*
X223772Y151209D02*
X249651D01*
X227581Y156609D02*
X249326D01*
X224407Y152109D02*
X248544D01*
X226947Y155709D02*
X248414D01*
X225042Y153009D02*
X248063D01*
X226312Y154809D02*
X248007D01*
X225677Y153909D02*
X247901D01*
X232025Y162909D02*
X245504D01*
X228216Y157509D02*
X244661D01*
X231390Y162009D02*
X244182D01*
X228851Y158409D02*
X243858D01*
X230756Y161109D02*
X243640D01*
X229486Y159309D02*
X243503D01*
X230121Y160209D02*
X243437D01*
X184500Y148509D02*
X228458D01*
X201264Y147609D02*
X227558D01*
X202359Y146709D02*
X226658D01*
X203455Y145809D02*
X225758D01*
X204551Y144909D02*
X224858D01*
X205646Y144009D02*
X223958D01*
X135440Y107109D02*
X221012D01*
X184716Y112509D02*
X220116D01*
X135320Y108009D02*
X219664D01*
X184684Y111609D02*
X219322D01*
X134970Y108909D02*
X219117D01*
X184369Y110709D02*
X218971D01*
X183645Y109809D02*
X218909D01*
X208052Y153009D02*
X208500D01*
X207234Y152109D02*
X208500D01*
X205471Y151209D02*
X208500D01*
X184500Y150309D02*
X208500D01*
X172048Y125109D02*
X204205D01*
X130285Y124209D02*
X204205D01*
X130920Y123309D02*
X204205D01*
X131183Y122409D02*
X204205D01*
X131171Y121509D02*
X204205D01*
X183878Y114309D02*
X204205D01*
X184476Y113409D02*
X204205D01*
X195471Y151209D02*
X203291D01*
X182242Y115209D02*
X202753D01*
X173304Y120609D02*
X202254D01*
X196719Y159309D02*
X202043D01*
X174570Y116109D02*
X201581D01*
X197234Y152109D02*
X201527D01*
X174142Y119709D02*
X201383D01*
X174791Y117009D02*
X201079D01*
X174596Y118809D02*
X200995D01*
X197768Y158409D02*
X200994D01*
X174799Y117909D02*
X200903D01*
X198052Y153009D02*
X200709D01*
X198363Y157509D02*
X200399D01*
X198527Y153909D02*
X200234D01*
X198696Y156609D02*
X200066D01*
X198773Y154809D02*
X199989D01*
X198826Y155709D02*
X199935D01*
X184500Y151209D02*
X193291D01*
X187735Y159309D02*
X192043D01*
X184500Y152109D02*
X191527D01*
X187678Y158409D02*
X190994D01*
X184500Y153009D02*
X190709D01*
X187333Y157509D02*
X190399D01*
X184500Y153909D02*
X190234D01*
X186550Y156609D02*
X190066D01*
X184500Y154809D02*
X189989D01*
X184500Y155709D02*
X189935D01*
X174094Y115209D02*
X181027D01*
X134308Y109809D02*
X179625D01*
X173212Y114309D02*
X179392D01*
X132960Y110709D02*
X178900D01*
X113200Y113409D02*
X178794D01*
X173417Y126009D02*
X178679D01*
X113200Y111609D02*
X178586D01*
X113200Y112509D02*
X178553D01*
X113200Y125109D02*
X169164D01*
X113200Y114309D02*
X168514D01*
X130880Y120609D02*
X168422D01*
X163103Y126009D02*
X167795D01*
X113200Y115209D02*
X167632D01*
X130198Y119709D02*
X167583D01*
X113200Y116109D02*
X167156D01*
X113200Y118809D02*
X167130D01*
X113200Y117009D02*
X166935D01*
X113200Y117909D02*
X166927D01*
X113200Y144009D02*
X141849D01*
X113200Y143109D02*
X141849D01*
X113200Y142209D02*
X141849D01*
X113200Y141309D02*
X141849D01*
X113200Y140409D02*
X141849D01*
X113200Y139509D02*
X141849D01*
X118233Y138609D02*
X141849D01*
X118884Y137709D02*
X141849D01*
X119157Y136809D02*
X141849D01*
X119153Y135909D02*
X141849D01*
X118872Y135009D02*
X141849D01*
X118207Y134109D02*
X141849D01*
X113200Y133209D02*
X141849D01*
X113200Y132309D02*
X141849D01*
X113200Y131409D02*
X141849D01*
X113200Y130509D02*
X141849D01*
X113200Y129609D02*
X141849D01*
X113200Y128709D02*
X141849D01*
X113200Y127809D02*
X141849D01*
X113200Y126909D02*
X141849D01*
X113200Y126009D02*
X141849D01*
X113200Y144909D02*
X140591D01*
X113200Y145809D02*
X139278D01*
X113200Y146709D02*
X137965D01*
X113200Y147609D02*
X136653D01*
X113200Y148509D02*
X135340D01*
X113200Y149409D02*
X134027D01*
X113200Y150309D02*
X132714D01*
X113200Y151209D02*
X131402D01*
X113200Y152109D02*
X130089D01*
X122960Y110709D02*
X130007D01*
X123276Y103509D02*
X129691D01*
X113200Y153009D02*
X128776D01*
X124308Y109809D02*
X128659D01*
X124442Y104409D02*
X128525D01*
X124970Y108909D02*
X127996D01*
X125044Y105309D02*
X127923D01*
X125320Y108009D02*
X127647D01*
X125353Y106209D02*
X127614D01*
X125440Y107109D02*
X127527D01*
X113200Y153909D02*
X127464D01*
X113200Y154809D02*
X127421D01*
X113200Y155709D02*
X127421D01*
X113200Y156609D02*
X127421D01*
X113200Y157509D02*
X127421D01*
X113200Y158409D02*
X127421D01*
X113200Y159309D02*
X127421D01*
X113200Y160209D02*
X127421D01*
X113200Y161109D02*
X127421D01*
X113200Y162009D02*
X127421D01*
X113200Y162909D02*
X127421D01*
X113200Y163809D02*
X127421D01*
X113200Y164709D02*
X127421D01*
X113200Y165609D02*
X127421D01*
X113200Y166509D02*
X127421D01*
X113200Y167409D02*
X127421D01*
X113200Y168309D02*
X127421D01*
X113200Y169209D02*
X127421D01*
X113200Y170109D02*
X127421D01*
X113200Y171009D02*
X127421D01*
X113200Y171909D02*
X127421D01*
X125005Y172809D02*
X127421D01*
X126223Y173709D02*
X127421D01*
X126738Y174609D02*
X127421D01*
X126923Y175509D02*
X127421D01*
X126840Y176409D02*
X127421D01*
X126463Y177309D02*
X127421D01*
X125615Y178209D02*
X127421D01*
X113200Y179109D02*
X127421D01*
X113200Y180009D02*
X127421D01*
X113200Y180909D02*
X127421D01*
X113200Y181809D02*
X127421D01*
X113200Y182709D02*
X127421D01*
X113200Y119709D02*
X126021D01*
X113200Y124209D02*
X125935D01*
X113200Y120609D02*
X125339D01*
X113200Y123309D02*
X125300D01*
X113200Y121509D02*
X125049D01*
X113200Y122409D02*
X125037D01*
X113200Y172809D02*
X122649D01*
X113200Y178209D02*
X122039D01*
X113200Y173709D02*
X121432D01*
X113200Y177309D02*
X121192D01*
X113200Y174609D02*
X120917D01*
X113200Y176409D02*
X120815D01*
X113200Y175509D02*
X120732D01*
X113200Y110709D02*
X120007D01*
X113200Y103509D02*
X119691D01*
X113200Y109809D02*
X118659D01*
X113200Y104409D02*
X118525D01*
X113200Y108909D02*
X117996D01*
X113200Y105309D02*
X117923D01*
X113200Y108009D02*
X117647D01*
X113200Y106209D02*
X117614D01*
X113200Y107109D02*
X117527D01*
X113200Y134109D02*
X113968D01*
X113200Y138609D02*
X113942D01*
X113200Y135009D02*
X113303D01*
X113200Y137709D02*
X113291D01*
G54D43*
X267171Y137537D02*
X266252Y136618D01*
X267171Y131245D02*
X266252Y132164D01*
X260878Y131245D02*
X261798Y132164D01*
X260878Y137537D02*
X261798Y136618D01*
X197527Y152377D02*
X196608Y153296D01*
X191234Y152377D02*
X192154Y153296D01*
X191234Y158669D02*
X192154Y157750D01*
X197527Y158669D02*
X196608Y157750D01*
X263123Y256413D02*
X264821Y258111D01*
X270277Y256413D02*
X268579Y258111D01*
X270277Y263566D02*
X268579Y261869D01*
X263123Y263566D02*
X264821Y261869D01*
X267171Y207537D02*
X266252Y206618D01*
X267171Y201245D02*
X266252Y202164D01*
X260878Y201245D02*
X261798Y202164D01*
X260878Y207537D02*
X261798Y206618D01*
X185506Y213097D02*
X186425Y214016D01*
X189850Y213097D02*
X188931Y214016D01*
X189850Y217441D02*
X188931Y216522D01*
X185506Y217441D02*
X186425Y216522D01*
X130057Y183490D02*
X130976Y184410D01*
X134401Y183490D02*
X133482Y184410D01*
X134401Y187834D02*
X133482Y186915D01*
X130057Y187834D02*
X130976Y186915D01*
X239016Y205502D02*
X239935Y206421D01*
X239016Y211098D02*
X239935Y210179D01*
X244613Y211098D02*
X243693Y210179D01*
X244613Y205502D02*
X243693Y206421D01*
X267171Y121245D02*
X266252Y122164D01*
X260878Y121245D02*
X261798Y122164D01*
X217527Y152377D02*
X216608Y153296D01*
X211234Y158669D02*
X212154Y157750D01*
X217527Y158669D02*
X216608Y157750D01*
X211234Y152377D02*
X212154Y153296D01*
X263902Y243412D02*
X264821Y244331D01*
X263902Y249009D02*
X264821Y248089D01*
X269498Y249009D02*
X268579Y248089D01*
X269498Y243412D02*
X268579Y244331D01*
X248721Y162175D02*
X247802Y161256D01*
X244337Y162175D02*
X245256Y161256D01*
X244337Y157791D02*
X245256Y158710D01*
X248721Y157791D02*
X247802Y158710D01*
X256159Y162276D02*
X255239Y161357D01*
X251774Y162276D02*
X252694Y161357D01*
X251774Y157892D02*
X252694Y158812D01*
X256159Y157892D02*
X255239Y158812D01*
X118280Y138563D02*
X117361Y137644D01*
X113896Y138563D02*
X114815Y137644D01*
X113896Y134179D02*
X114815Y135098D01*
X118280Y134179D02*
X117361Y135098D01*
X126019Y177868D02*
X125100Y176949D01*
X121635Y177868D02*
X122555Y176949D01*
X121635Y173484D02*
X122555Y174404D01*
X126019Y173484D02*
X125100Y174404D01*
X240390Y119301D02*
X239471Y118382D01*
X236006Y119301D02*
X236925Y118382D01*
X240394Y124901D02*
X239475Y123982D01*
X236010Y124901D02*
X236929Y123982D01*
X236010Y120517D02*
X236929Y121436D01*
X240394Y120517D02*
X239475Y121436D01*
X245784Y144465D02*
X246703Y143546D01*
X245784Y140081D02*
X246703Y141000D01*
X147358Y139679D02*
X146439Y138760D01*
X147358Y135295D02*
X146439Y136214D01*
X246787Y138854D02*
X245868Y137935D01*
X242403Y138854D02*
X243323Y137935D01*
X242403Y134470D02*
X243323Y135390D01*
X246787Y134470D02*
X245868Y135390D01*
X202538Y143727D02*
X201619Y142808D01*
X198154Y143727D02*
X199073Y142808D01*
X198154Y139343D02*
X199073Y140262D01*
X202538Y139343D02*
X201619Y140262D01*
X222392Y189092D02*
X221473Y188173D01*
X218008Y189092D02*
X218927Y188173D01*
X218008Y184708D02*
X218927Y185627D01*
X222392Y184708D02*
X221473Y185627D01*
X195441Y188583D02*
X194522Y187664D01*
X191057Y188583D02*
X191976Y187664D01*
X191057Y184199D02*
X191976Y185119D01*
X195441Y184199D02*
X194522Y185119D01*
X162873Y144546D02*
X161954Y143627D01*
X158489Y144546D02*
X159408Y143627D01*
X162873Y140162D02*
X161954Y141082D01*
G54D62*
X128110Y122000D03*
X116088Y136371D03*
X204000Y118047D03*
X181635Y112169D03*
X145166Y137487D03*
X222000Y110047D03*
X238198Y117109D03*
X238202Y122709D03*
X244595Y136662D03*
X123827Y175676D03*
X145852Y209054D03*
X175854Y208740D03*
X142296Y215233D03*
X143000Y165000D03*
X200236Y175484D03*
X179115Y202950D03*
X201000Y187000D03*
X178000Y167000D03*
X184646Y159055D03*
X178246Y156808D03*
X160287Y158777D03*
X193420Y179970D03*
X155350Y154439D03*
X149126Y157626D03*
X200346Y141535D03*
X193249Y186391D03*
X160681Y142354D03*
X184881Y172183D03*
X252000Y194000D03*
X253000Y147000D03*
X251000Y154000D03*
X251864Y204853D03*
X253973Y140007D03*
X222000Y204000D03*
X253967Y160084D03*
X246529Y159983D03*
X223211Y165739D03*
X220200Y186900D03*
X247976Y142273D03*
X138965Y220953D03*
X133499Y224801D03*
X120904D03*
X181233Y234948D03*
X181624Y227221D03*
X174833Y234967D03*
G54D76*
G74*
X0Y0D02*
M02*
