%
T1C.01575F095S3
X013223Y016566
X013223Y017566
X013223Y018566
X017768Y021527
X016768Y021527
X018768Y021527
T2C.022F197S55
X012811Y0122
X011609Y013637
X014517Y013749
X016068Y014235
X015535Y015444
X014913Y015763
X016029Y015878
X0143Y0165
X012383Y017568
X014585Y020905
X01423Y021523
X013897Y022095
X01209Y02248
X01335Y02248
X017483Y023497
X018123Y023495
X018162Y022722
X017585Y020874
X017911Y020295
X018488Y017218
X0178Y0167
X018465Y015906
X017825Y015681
X018163Y011217
X0222Y011005
X02382Y011711
X0204Y011805
X02382Y012271
X020035Y014153
X022321Y016574
X020024Y017548
X019342Y017997
X019325Y018639
X02202Y01869
X0201Y0187
X0222Y0204
X025186Y020485
X0252Y0194
X025397Y016008
X024653Y015998
X0251Y0154
X0253Y0147
X024798Y014227
X025397Y014001
X02446Y013666
T3C.03346F197S55
X013148Y010704
X012148Y010704
X015442Y013105
X015442Y014105
X01552Y02083
X01552Y021617
X01552Y022405
X01552Y023192
X01552Y02398
X01552Y024767
X01552Y025554
X01552Y026342
X01552Y027129
X01552Y027917
X024181Y027917
X024181Y027129
X024181Y026342
X024181Y025554
X024181Y024767
X024181Y02398
X024181Y023192
X024181Y022405
X024181Y021617
X024181Y02083
X017061Y012879
X017086Y011749
X027912Y021396
X027912Y022396
X02667Y024621
X02667Y025999
T4C.04134F139S55
X019438Y015552
X020438Y015552
X021438Y015552
X019438Y016552
X021438Y016552
X020438Y016552
X026402Y020439
X026402Y019439
X026402Y018439
X026402Y017439
X026402Y016439
X026402Y015439
X026402Y014439
X026402Y013439
X026402Y012439
X026402Y011439
X027402Y011439
X027402Y012439
X027402Y013439
X027402Y014439
X027402Y015439
X027402Y016439
X027402Y017439
X027402Y018439
X027402Y019439
X027402Y020439
M30
