*
*
G04 PADS 9.5 Build Number: 522968 generated Gerber (RS-274-X) file*
G04 PC Version=2.1*
*
%IN "Lock3_routedTry3_wPlane"*%
*
%MOIN*%
*
%FSLAX35Y35*%
*
*
*
*
G04 PC Standard Apertures*
*
*
G04 Thermal Relief Aperture macro.*
%AMTER*
1,1,$1,0,0*
1,0,$1-$2,0,0*
21,0,$3,$4,0,0,45*
21,0,$3,$4,0,0,135*
%
*
*
G04 Annular Aperture macro.*
%AMANN*
1,1,$1,0,0*
1,0,$2,0,0*
%
*
*
G04 Odd Aperture macro.*
%AMODD*
1,1,$1,0,0*
1,0,$1-0.005,0,0*
%
*
*
G04 PC Custom Aperture Macros*
*
*
*
*
*
*
G04 PC Aperture Table*
*
%ADD038C,0.00039*%
%ADD076C,0.005*%
%ADD077R,0.06906X0.03165*%
%ADD078R,0.03165X0.06906*%
%ADD079R,0.05134X0.06512*%
%ADD080R,0.0474X0.0474*%
%ADD081C,0.06315*%
%ADD082R,0.09071X0.06709*%
%ADD083R,0.04937X0.0474*%
%ADD084C,0.04543*%
%ADD085R,0.04346X0.02181*%
%ADD086R,0.0474X0.0415*%
%ADD087R,0.05134X0.09268*%
%ADD088R,0.05724X0.08283*%
%ADD089R,0.0474X0.03953*%
%ADD090R,0.06315X0.06315*%
%ADD091C,0.02181*%
%ADD092R,0.01433X0.01433*%
%ADD093R,0.07299X0.07299*%
%ADD094C,0.07299*%
%ADD095R,0.04937X0.04543*%
%ADD096R,0.07693X0.05331*%
%ADD097O,0.02575X0.06906*%
%ADD098R,0.07102X0.03362*%
%ADD099R,0.05134X0.03559*%
%ADD100R,0.06512X0.05134*%
%ADD101R,0.0789X0.05134*%
%ADD102R,0.1163X0.05528*%
%ADD103C,0.046*%
*
*
*
*
G04 PC Circuitry*
G04 Layer Name Lock3_routedTry3_wPlane - circuitry*
%LPD*%
*
*
G04 PC Custom Flashes*
G04 Layer Name Lock3_routedTry3_wPlane - flashes*
%LPD*%
*
*
G04 PC Circuitry*
G04 Layer Name Lock3_routedTry3_wPlane - circuitry*
%LPD*%
*
G54D38*
G01X244492Y126069D02*
X244493Y126018D01*
X244496Y125968*
X244502Y125917*
X244511Y125867*
X244522Y125817*
X244535Y125768*
X244550Y125719*
X244568Y125671*
X244588Y125625*
X244611Y125579*
X244635Y125534*
X244662Y125490*
X244690Y125448*
X244721Y125407*
X244753Y125368*
X244787Y125330*
X244823Y125294*
X244861Y125260*
X244900Y125228*
X244941Y125197*
X244983Y125169*
X245027Y125142*
X245072Y125118*
X245118Y125095*
X245164Y125075*
X245212Y125057*
X245261Y125042*
X245310Y125029*
X245360Y125018*
X245410Y125009*
X245461Y125003*
X245511Y125000*
X245562Y124999*
X247728*
X247762Y125000*
X247796Y125003*
X247830Y125010*
X247863Y125018*
X247896Y125029*
X247927Y125042*
X247958Y125057*
X247987Y125075*
X248016Y125094*
X248042Y125116*
X248067Y125139*
X248091Y125164*
X248112Y125191*
X248132Y125219*
X248149Y125249*
X248165Y125279*
X248178Y125311*
X248189Y125344*
X248197Y125377*
X248203Y125411*
X248207Y125445*
X248208Y125479*
Y126660*
X248207Y126694*
X248203Y126728*
X248197Y126762*
X248189Y126795*
X248178Y126828*
X248165Y126860*
X248149Y126890*
X248132Y126920*
X248112Y126948*
X248091Y126975*
X248067Y127000*
X248042Y127023*
X248016Y127045*
X247987Y127064*
X247958Y127082*
X247927Y127097*
X247896Y127110*
X247863Y127121*
X247830Y127129*
X247796Y127135*
X247762Y127139*
X247728Y127140*
X245562*
X245511Y127139*
X245461Y127135*
X245410Y127129*
X245360Y127121*
X245310Y127110*
X245261Y127097*
X245212Y127081*
X245164Y127064*
X245118Y127044*
X245072Y127021*
X245027Y126997*
X244983Y126970*
X244941Y126942*
X244900Y126911*
X244861Y126879*
X244823Y126844*
X244787Y126808*
X244753Y126771*
X244721Y126731*
X244690Y126691*
X244662Y126648*
X244635Y126605*
X244611Y126560*
X244588Y126514*
X244568Y126467*
X244550Y126420*
X244535Y126371*
X244522Y126322*
X244511Y126272*
X244502Y126222*
X244496Y126171*
X244493Y126120*
X244492Y126069*
X244499Y125942D02*
Y126197D01*
X244519Y125829D02*
Y126310D01*
X244539Y125756D02*
Y126383D01*
X244558Y125698D02*
Y126441D01*
X244578Y125648D02*
Y126491D01*
X244598Y125605D02*
Y126534D01*
X244618Y125566D02*
Y126573D01*
X244637Y125530D02*
Y126608D01*
X244657Y125498D02*
Y126641D01*
X244677Y125468D02*
Y126671D01*
X244696Y125440D02*
Y126699D01*
X244716Y125414D02*
Y126725D01*
X244736Y125389D02*
Y126750D01*
X244755Y125366D02*
Y126773D01*
X244775Y125344D02*
Y126795D01*
X244795Y125323D02*
Y126816D01*
X244814Y125303D02*
Y126835D01*
X244834Y125285D02*
Y126854D01*
X244854Y125267D02*
Y126872D01*
X244873Y125250D02*
Y126889D01*
X244893Y125234D02*
Y126905D01*
X244913Y125218D02*
Y126920D01*
X244933Y125204D02*
Y126935D01*
X244952Y125190D02*
Y126949D01*
X244972Y125176D02*
Y126962D01*
X244992Y125164D02*
Y126975D01*
X245011Y125152D02*
Y126987D01*
X245031Y125140D02*
Y126999D01*
X245051Y125129D02*
Y127010D01*
X245070Y125118D02*
Y127020D01*
X245090Y125109D02*
Y127030D01*
X245110Y125099D02*
Y127040D01*
X245129Y125090D02*
Y127049D01*
X245149Y125082D02*
Y127057D01*
X245169Y125074D02*
Y127065D01*
X245188Y125066D02*
Y127073D01*
X245208Y125059D02*
Y127080D01*
X245228Y125052D02*
Y127086D01*
X245247Y125046D02*
Y127093D01*
X245267Y125040D02*
Y127099D01*
X245287Y125035D02*
Y127104D01*
X245307Y125030D02*
Y127109D01*
X245326Y125025D02*
Y127114D01*
X245346Y125021D02*
Y127118D01*
X245366Y125017D02*
Y127122D01*
X245385Y125014D02*
Y127125D01*
X245405Y125010D02*
Y127129D01*
X245425Y125008D02*
Y127131D01*
X245444Y125005D02*
Y127134D01*
X245464Y125003D02*
Y127136D01*
X245484Y125002D02*
Y127137D01*
X245503Y125000D02*
Y127139D01*
X245523Y125000D02*
Y127139D01*
X245543Y124999D02*
Y127140D01*
X245562Y124999D02*
Y127140D01*
X245582Y124999D02*
Y127140D01*
X245602Y124999D02*
Y127140D01*
X245621Y124999D02*
Y127140D01*
X245641Y124999D02*
Y127140D01*
X245661Y124999D02*
Y127140D01*
X245681Y124999D02*
Y127140D01*
X245700Y124999D02*
Y127140D01*
X245720Y124999D02*
Y127140D01*
X245740Y124999D02*
Y127140D01*
X245759Y124999D02*
Y127140D01*
X245779Y124999D02*
Y127140D01*
X245799Y124999D02*
Y127140D01*
X245818Y124999D02*
Y127140D01*
X245838Y124999D02*
Y127140D01*
X245858Y124999D02*
Y127140D01*
X245877Y124999D02*
Y127140D01*
X245897Y124999D02*
Y127140D01*
X245917Y124999D02*
Y127140D01*
X245936Y124999D02*
Y127140D01*
X245956Y124999D02*
Y127140D01*
X245976Y124999D02*
Y127140D01*
X245996Y124999D02*
Y127140D01*
X246015Y124999D02*
Y127140D01*
X246035Y124999D02*
Y127140D01*
X246055Y124999D02*
Y127140D01*
X246074Y124999D02*
Y127140D01*
X246094Y124999D02*
Y127140D01*
X246114Y124999D02*
Y127140D01*
X246133Y124999D02*
Y127140D01*
X246153Y124999D02*
Y127140D01*
X246173Y124999D02*
Y127140D01*
X246192Y124999D02*
Y127140D01*
X246212Y124999D02*
Y127140D01*
X246232Y124999D02*
Y127140D01*
X246251Y124999D02*
Y127140D01*
X246271Y124999D02*
Y127140D01*
X246291Y124999D02*
Y127140D01*
X246310Y124999D02*
Y127140D01*
X246330Y124999D02*
Y127140D01*
X246350Y124999D02*
Y127140D01*
X246370Y124999D02*
Y127140D01*
X246389Y124999D02*
Y127140D01*
X246409Y124999D02*
Y127140D01*
X246429Y124999D02*
Y127140D01*
X246448Y124999D02*
Y127140D01*
X246468Y124999D02*
Y127140D01*
X246488Y124999D02*
Y127140D01*
X246507Y124999D02*
Y127140D01*
X246527Y124999D02*
Y127140D01*
X246547Y124999D02*
Y127140D01*
X246566Y124999D02*
Y127140D01*
X246586Y124999D02*
Y127140D01*
X246606Y124999D02*
Y127140D01*
X246625Y124999D02*
Y127140D01*
X246645Y124999D02*
Y127140D01*
X246665Y124999D02*
Y127140D01*
X246684Y124999D02*
Y127140D01*
X246704Y124999D02*
Y127140D01*
X246724Y124999D02*
Y127140D01*
X246744Y124999D02*
Y127140D01*
X246763Y124999D02*
Y127140D01*
X246783Y124999D02*
Y127140D01*
X246803Y124999D02*
Y127140D01*
X246822Y124999D02*
Y127140D01*
X246842Y124999D02*
Y127140D01*
X246862Y124999D02*
Y127140D01*
X246881Y124999D02*
Y127140D01*
X246901Y124999D02*
Y127140D01*
X246921Y124999D02*
Y127140D01*
X246940Y124999D02*
Y127140D01*
X246960Y124999D02*
Y127140D01*
X246980Y124999D02*
Y127140D01*
X246999Y124999D02*
Y127140D01*
X247019Y124999D02*
Y127140D01*
X247039Y124999D02*
Y127140D01*
X247058Y124999D02*
Y127140D01*
X247078Y124999D02*
Y127140D01*
X247098Y124999D02*
Y127140D01*
X247118Y124999D02*
Y127140D01*
X247137Y124999D02*
Y127140D01*
X247157Y124999D02*
Y127140D01*
X247177Y124999D02*
Y127140D01*
X247196Y124999D02*
Y127140D01*
X247216Y124999D02*
Y127140D01*
X247236Y124999D02*
Y127140D01*
X247255Y124999D02*
Y127140D01*
X247275Y124999D02*
Y127140D01*
X247295Y124999D02*
Y127140D01*
X247314Y124999D02*
Y127140D01*
X247334Y124999D02*
Y127140D01*
X247354Y124999D02*
Y127140D01*
X247373Y124999D02*
Y127140D01*
X247393Y124999D02*
Y127140D01*
X247413Y124999D02*
Y127140D01*
X247433Y124999D02*
Y127140D01*
X247452Y124999D02*
Y127140D01*
X247472Y124999D02*
Y127140D01*
X247492Y124999D02*
Y127140D01*
X247511Y124999D02*
Y127140D01*
X247531Y124999D02*
Y127140D01*
X247551Y124999D02*
Y127140D01*
X247570Y124999D02*
Y127140D01*
X247590Y124999D02*
Y127140D01*
X247610Y124999D02*
Y127140D01*
X247629Y124999D02*
Y127140D01*
X247649Y124999D02*
Y127140D01*
X247669Y124999D02*
Y127140D01*
X247688Y124999D02*
Y127140D01*
X247708Y124999D02*
Y127140D01*
X247728Y124999D02*
Y127140D01*
X247747Y124999D02*
Y127140D01*
X247767Y125000D02*
Y127139D01*
X247787Y125002D02*
Y127136D01*
X247807Y125005D02*
Y127134D01*
X247826Y125009D02*
Y127130D01*
X247846Y125014D02*
Y127125D01*
X247866Y125019D02*
Y127120D01*
X247885Y125025D02*
Y127113D01*
X247905Y125033D02*
Y127106D01*
X247925Y125041D02*
Y127098D01*
X247944Y125050D02*
Y127088D01*
X247964Y125061D02*
Y127078D01*
X247984Y125073D02*
Y127066D01*
X248003Y125086D02*
Y127053D01*
X248023Y125100D02*
Y127039D01*
X248043Y125116D02*
Y127023D01*
X248062Y125135D02*
Y127004D01*
X248082Y125155D02*
Y126984D01*
X248102Y125178D02*
Y126961D01*
X248121Y125204D02*
Y126935D01*
X248141Y125235D02*
Y126904D01*
X248161Y125272D02*
Y126867D01*
X248181Y125319D02*
Y126820D01*
X248200Y125394D02*
Y126745D01*
X244492Y128038D02*
X244493Y127987D01*
X244496Y127936*
X244502Y127886*
X244511Y127835*
X244522Y127785*
X244535Y127736*
X244550Y127688*
X244568Y127640*
X244588Y127593*
X244611Y127547*
X244635Y127503*
X244662Y127459*
X244690Y127417*
X244721Y127376*
X244753Y127337*
X244787Y127299*
X244823Y127263*
X244861Y127229*
X244900Y127196*
X244941Y127166*
X244983Y127137*
X245027Y127111*
X245072Y127086*
X245118Y127064*
X245164Y127044*
X245212Y127026*
X245261Y127010*
X245310Y126997*
X245360Y126986*
X245410Y126978*
X245461Y126972*
X245511Y126968*
X245562Y126967*
X247728*
X247762Y126968*
X247796Y126972*
X247830Y126978*
X247863Y126987*
X247896Y126997*
X247927Y127010*
X247958Y127026*
X247987Y127043*
X248016Y127063*
X248042Y127084*
X248067Y127108*
X248091Y127133*
X248112Y127160*
X248132Y127188*
X248149Y127217*
X248165Y127248*
X248178Y127280*
X248189Y127312*
X248197Y127345*
X248203Y127379*
X248207Y127413*
X248208Y127447*
Y128628*
X248208D02*
X248207Y128663D01*
X248203Y128697*
X248197Y128731*
X248189Y128764*
X248178Y128796*
X248165Y128828*
X248149Y128859*
X248132Y128888*
X248112Y128916*
X248091Y128943*
X248067Y128968*
X248042Y128991*
X248016Y129013*
X247987Y129033*
X247958Y129050*
X247927Y129065*
X247896Y129079*
X247863Y129089*
X247830Y129098*
X247796Y129104*
X247762Y129108*
X247728Y129109*
X245562*
X245511Y129108*
X245461Y129104*
X245410Y129098*
X245360Y129089*
X245310Y129079*
X245261Y129065*
X245212Y129050*
X245164Y129032*
X245118Y129012*
X245072Y128990*
X245027Y128965*
X244983Y128939*
X244941Y128910*
X244900Y128880*
X244861Y128847*
X244823Y128813*
X244787Y128777*
X244753Y128739*
X244721Y128700*
X244690Y128659*
X244662Y128617*
X244635Y128573*
X244611Y128529*
X244588Y128483*
X244568Y128436*
X244550Y128388*
X244535Y128340*
X244522Y128290*
X244511Y128241*
X244502Y128190*
X244496Y128140*
X244493Y128089*
X244492Y128038*
X244499Y127911D02*
Y128165D01*
X244519Y127798D02*
Y128278D01*
X244539Y127724D02*
Y128352D01*
X244558Y127666D02*
Y128410D01*
X244578Y127617D02*
Y128459D01*
X244598Y127573D02*
Y128502D01*
X244618Y127535D02*
Y128541D01*
X244637Y127499D02*
Y128577D01*
X244657Y127467D02*
Y128609D01*
X244677Y127437D02*
Y128639D01*
X244696Y127409D02*
Y128667D01*
X244716Y127382D02*
Y128694D01*
X244736Y127358D02*
Y128718D01*
X244755Y127334D02*
Y128742D01*
X244775Y127313D02*
Y128763D01*
X244795Y127292D02*
Y128784D01*
X244814Y127272D02*
Y128804D01*
X244834Y127253D02*
Y128823D01*
X244854Y127235D02*
Y128841D01*
X244873Y127218D02*
Y128857D01*
X244893Y127202D02*
Y128874D01*
X244913Y127187D02*
Y128889D01*
X244933Y127172D02*
Y128904D01*
X244952Y127158D02*
Y128918D01*
X244972Y127145D02*
Y128931D01*
X244992Y127132D02*
Y128944D01*
X245011Y127120D02*
Y128956D01*
X245031Y127108D02*
Y128967D01*
X245051Y127098D02*
Y128978D01*
X245070Y127087D02*
Y128989D01*
X245090Y127077D02*
Y128999D01*
X245110Y127068D02*
Y129008D01*
X245129Y127059D02*
Y129017D01*
X245149Y127050D02*
Y129026D01*
X245169Y127042D02*
Y129034D01*
X245188Y127035D02*
Y129041D01*
X245208Y127028D02*
Y129048D01*
X245228Y127021D02*
Y129055D01*
X245247Y127015D02*
Y129061D01*
X245267Y127009D02*
Y129067D01*
X245287Y127003D02*
Y129072D01*
X245307Y126998D02*
Y129078D01*
X245326Y126994D02*
Y129082D01*
X245346Y126989D02*
Y129086D01*
X245366Y126985D02*
Y129090D01*
X245385Y126982D02*
Y129094D01*
X245405Y126979D02*
Y129097D01*
X245425Y126976D02*
Y129100D01*
X245444Y126974D02*
Y129102D01*
X245464Y126972D02*
Y129104D01*
X245484Y126970D02*
Y129106D01*
X245503Y126969D02*
Y129107D01*
X245523Y126968D02*
Y129108D01*
X245543Y126968D02*
Y129108D01*
X245562Y126967D02*
Y129109D01*
X245582Y126967D02*
Y129109D01*
X245602Y126967D02*
Y129109D01*
X245621Y126967D02*
Y129109D01*
X245641Y126967D02*
Y129109D01*
X245661Y126967D02*
Y129109D01*
X245681Y126967D02*
Y129109D01*
X245700Y126967D02*
Y129109D01*
X245720Y126967D02*
Y129109D01*
X245740Y126967D02*
Y129109D01*
X245759Y126967D02*
Y129109D01*
X245779Y126967D02*
Y129109D01*
X245799Y126967D02*
Y129109D01*
X245818Y126967D02*
Y129109D01*
X245838Y126967D02*
Y129109D01*
X245858Y126967D02*
Y129109D01*
X245877Y126967D02*
Y129109D01*
X245897Y126967D02*
Y129109D01*
X245917Y126967D02*
Y129109D01*
X245936Y126967D02*
Y129109D01*
X245956Y126967D02*
Y129109D01*
X245976Y126967D02*
Y129109D01*
X245996Y126967D02*
Y129109D01*
X246015Y126967D02*
Y129109D01*
X246035Y126967D02*
Y129109D01*
X246055Y126967D02*
Y129109D01*
X246074Y126967D02*
Y129109D01*
X246094Y126967D02*
Y129109D01*
X246114Y126967D02*
Y129109D01*
X246133Y126967D02*
Y129109D01*
X246153Y126967D02*
Y129109D01*
X246173Y126967D02*
Y129109D01*
X246192Y126967D02*
Y129109D01*
X246212Y126967D02*
Y129109D01*
X246232Y126967D02*
Y129109D01*
X246251Y126967D02*
Y129109D01*
X246271Y126967D02*
Y129109D01*
X246291Y126967D02*
Y129109D01*
X246310Y126967D02*
Y129109D01*
X246330Y126967D02*
Y129109D01*
X246350Y126967D02*
Y129109D01*
X246370Y126967D02*
Y129109D01*
X246389Y126967D02*
Y129109D01*
X246409Y126967D02*
Y129109D01*
X246429Y126967D02*
Y129109D01*
X246448Y126967D02*
Y129109D01*
X246468Y126967D02*
Y129109D01*
X246488Y126967D02*
Y129109D01*
X246507Y126967D02*
Y129109D01*
X246527Y126967D02*
Y129109D01*
X246547Y126967D02*
Y129109D01*
X246566Y126967D02*
Y129109D01*
X246586Y126967D02*
Y129109D01*
X246606Y126967D02*
Y129109D01*
X246625Y126967D02*
Y129109D01*
X246645Y126967D02*
Y129109D01*
X246665Y126967D02*
Y129109D01*
X246684Y126967D02*
Y129109D01*
X246704Y126967D02*
Y129109D01*
X246724Y126967D02*
Y129109D01*
X246744Y126967D02*
Y129109D01*
X246763Y126967D02*
Y129109D01*
X246783Y126967D02*
Y129109D01*
X246803Y126967D02*
Y129109D01*
X246822Y126967D02*
Y129109D01*
X246842Y126967D02*
Y129109D01*
X246862Y126967D02*
Y129109D01*
X246881Y126967D02*
Y129109D01*
X246901Y126967D02*
Y129109D01*
X246921Y126967D02*
Y129109D01*
X246940Y126967D02*
Y129109D01*
X246960Y126967D02*
Y129109D01*
X246980Y126967D02*
Y129109D01*
X246999Y126967D02*
Y129109D01*
X247019Y126967D02*
Y129109D01*
X247039Y126967D02*
Y129109D01*
X247058Y126967D02*
Y129109D01*
X247078Y126967D02*
Y129109D01*
X247098Y126967D02*
Y129109D01*
X247118Y126967D02*
Y129109D01*
X247137Y126967D02*
Y129109D01*
X247157Y126967D02*
Y129109D01*
X247177Y126967D02*
Y129109D01*
X247196Y126967D02*
Y129109D01*
X247216Y126967D02*
Y129109D01*
X247236Y126967D02*
Y129109D01*
X247255Y126967D02*
Y129109D01*
X247275Y126967D02*
Y129109D01*
X247295Y126967D02*
Y129109D01*
X247314Y126967D02*
Y129109D01*
X247334Y126967D02*
Y129109D01*
X247354Y126967D02*
Y129109D01*
X247373Y126967D02*
Y129109D01*
X247393Y126967D02*
Y129109D01*
X247413Y126967D02*
Y129109D01*
X247433Y126967D02*
Y129109D01*
X247452Y126967D02*
Y129109D01*
X247472Y126967D02*
Y129109D01*
X247492Y126967D02*
Y129109D01*
X247511Y126967D02*
Y129109D01*
X247531Y126967D02*
Y129109D01*
X247551Y126967D02*
Y129109D01*
X247570Y126967D02*
Y129109D01*
X247590Y126967D02*
Y129109D01*
X247610Y126967D02*
Y129109D01*
X247629Y126967D02*
Y129109D01*
X247649Y126967D02*
Y129109D01*
X247669Y126967D02*
Y129109D01*
X247688Y126967D02*
Y129109D01*
X247708Y126967D02*
Y129109D01*
X247728Y126967D02*
Y129109D01*
X247747Y126968D02*
Y129108D01*
X247767Y126969D02*
Y129107D01*
X247787Y126971D02*
Y129105D01*
X247807Y126974D02*
Y129102D01*
X247826Y126977D02*
Y129098D01*
X247846Y126982D02*
Y129094D01*
X247866Y126987D02*
Y129089D01*
X247885Y126994D02*
Y129082D01*
X247905Y127001D02*
Y129075D01*
X247925Y127009D02*
Y129067D01*
X247944Y127019D02*
Y129057D01*
X247964Y127029D02*
Y129046D01*
X247984Y127041D02*
Y129035D01*
X248003Y127054D02*
Y129022D01*
X248023Y127069D02*
Y129007D01*
X248043Y127085D02*
Y128991D01*
X248062Y127103D02*
Y128973D01*
X248082Y127124D02*
Y128952D01*
X248102Y127147D02*
Y128929D01*
X248121Y127173D02*
Y128903D01*
X248141Y127203D02*
Y128872D01*
X248161Y127240D02*
Y128836D01*
X248181Y127288D02*
Y128788D01*
X248200Y127362D02*
Y128713D01*
X244492Y130006D02*
X244493Y129955D01*
X244493D02*
X244496Y129905D01*
X244502Y129854*
X244511Y129804*
X244522Y129754*
X244535Y129705*
X244550Y129656*
X244568Y129608*
X244588Y129562*
X244611Y129516*
X244635Y129471*
X244662Y129427*
X244662D02*
X244690Y129385D01*
X244721Y129344*
X244753Y129305*
X244787Y129267*
X244823Y129231*
X244861Y129197*
X244900Y129165*
X244941Y129134*
X244983Y129106*
X245027Y129079*
X245072Y129055*
X245118Y129032*
X245164Y129012*
X245212Y128994*
X245261Y128979*
X245310Y128966*
X245360Y128955*
X245410Y128946*
X245461Y128940*
X245511Y128937*
X245562Y128936*
X247728*
X247762Y128937*
X247796Y128940*
X247830Y128947*
X247863Y128955*
X247896Y128966*
X247927Y128979*
X247958Y128994*
X247987Y129012*
X248016Y129031*
X248042Y129053*
X248067Y129076*
X248091Y129101*
X248112Y129128*
X248132Y129156*
X248149Y129186*
X248165Y129216*
X248178Y129248*
X248189Y129281*
X248197Y129314*
X248203Y129348*
X248207Y129382*
X248208Y129416*
Y130597*
X248207Y130631*
X248203Y130665*
X248197Y130699*
X248189Y130732*
X248178Y130765*
X248165Y130797*
X248149Y130827*
X248132Y130857*
X248112Y130885*
X248091Y130912*
X248067Y130937*
X248042Y130960*
X248016Y130982*
X247987Y131001*
X247958Y131019*
X247927Y131034*
X247896Y131047*
X247863Y131058*
X247830Y131066*
X247796Y131072*
X247762Y131076*
X247728Y131077*
X245562*
X245511Y131076*
X245461Y131072*
X245410Y131066*
X245360Y131058*
X245310Y131047*
X245261Y131034*
X245212Y131018*
X245164Y131001*
X245118Y130981*
X245072Y130958*
X245027Y130934*
X244983Y130907*
X244941Y130879*
X244900Y130848*
X244861Y130816*
X244823Y130781*
X244787Y130745*
X244753Y130708*
X244721Y130668*
X244690Y130628*
X244662Y130585*
X244635Y130542*
X244611Y130497*
X244588Y130451*
X244568Y130404*
X244550Y130357*
X244535Y130308*
X244522Y130259*
X244511Y130209*
X244502Y130159*
X244496Y130108*
X244493Y130057*
X244492Y130006*
X244499Y129879D02*
Y130134D01*
X244519Y129766D02*
Y130247D01*
X244539Y129693D02*
Y130320D01*
X244558Y129635D02*
Y130378D01*
X244578Y129585D02*
Y130428D01*
X244598Y129542D02*
Y130471D01*
X244618Y129503D02*
Y130510D01*
X244637Y129467D02*
Y130545D01*
X244657Y129435D02*
Y130578D01*
X244677Y129405D02*
Y130608D01*
X244696Y129377D02*
Y130636D01*
X244716Y129351D02*
Y130662D01*
X244736Y129326D02*
Y130687D01*
X244755Y129303D02*
Y130710D01*
X244775Y129281D02*
Y130732D01*
X244795Y129260D02*
Y130753D01*
X244814Y129240D02*
Y130772D01*
X244834Y129222D02*
Y130791D01*
X244854Y129204D02*
Y130809D01*
X244873Y129187D02*
Y130826D01*
X244893Y129171D02*
Y130842D01*
X244913Y129155D02*
Y130857D01*
X244933Y129141D02*
Y130872D01*
X244952Y129127D02*
Y130886D01*
X244972Y129113D02*
Y130899D01*
X244992Y129101D02*
Y130912D01*
X245011Y129089D02*
Y130924D01*
X245031Y129077D02*
Y130936D01*
X245051Y129066D02*
Y130947D01*
X245070Y129055D02*
Y130957D01*
X245090Y129046D02*
Y130967D01*
X245110Y129036D02*
Y130977D01*
X245129Y129027D02*
Y130986D01*
X245149Y129019D02*
Y130994D01*
X245169Y129011D02*
Y131002D01*
X245188Y129003D02*
Y131010D01*
X245208Y128996D02*
Y131017D01*
X245228Y128989D02*
Y131023D01*
X245247Y128983D02*
Y131030D01*
X245267Y128977D02*
Y131036D01*
X245287Y128972D02*
Y131041D01*
X245307Y128967D02*
Y131046D01*
X245326Y128962D02*
Y131051D01*
X245346Y128958D02*
Y131055D01*
X245366Y128954D02*
Y131059D01*
X245385Y128951D02*
Y131062D01*
X245405Y128947D02*
Y131066D01*
X245425Y128945D02*
Y131068D01*
X245444Y128942D02*
Y131071D01*
X245464Y128940D02*
Y131073D01*
X245484Y128939D02*
Y131074D01*
X245503Y128937D02*
Y131076D01*
X245523Y128937D02*
Y131076D01*
X245543Y128936D02*
Y131077D01*
X245562Y128936D02*
Y131077D01*
X245582Y128936D02*
Y131077D01*
X245602Y128936D02*
Y131077D01*
X245621Y128936D02*
Y131077D01*
X245641Y128936D02*
Y131077D01*
X245661Y128936D02*
Y131077D01*
X245681Y128936D02*
Y131077D01*
X245700Y128936D02*
Y131077D01*
X245720Y128936D02*
Y131077D01*
X245740Y128936D02*
Y131077D01*
X245759Y128936D02*
Y131077D01*
X245779Y128936D02*
Y131077D01*
X245799Y128936D02*
Y131077D01*
X245818Y128936D02*
Y131077D01*
X245838Y128936D02*
Y131077D01*
X245858Y128936D02*
Y131077D01*
X245877Y128936D02*
Y131077D01*
X245897Y128936D02*
Y131077D01*
X245917Y128936D02*
Y131077D01*
X245936Y128936D02*
Y131077D01*
X245956Y128936D02*
Y131077D01*
X245976Y128936D02*
Y131077D01*
X245996Y128936D02*
Y131077D01*
X246015Y128936D02*
Y131077D01*
X246035Y128936D02*
Y131077D01*
X246055Y128936D02*
Y131077D01*
X246074Y128936D02*
Y131077D01*
X246094Y128936D02*
Y131077D01*
X246114Y128936D02*
Y131077D01*
X246133Y128936D02*
Y131077D01*
X246153Y128936D02*
Y131077D01*
X246173Y128936D02*
Y131077D01*
X246192Y128936D02*
Y131077D01*
X246212Y128936D02*
Y131077D01*
X246232Y128936D02*
Y131077D01*
X246251Y128936D02*
Y131077D01*
X246271Y128936D02*
Y131077D01*
X246291Y128936D02*
Y131077D01*
X246310Y128936D02*
Y131077D01*
X246330Y128936D02*
Y131077D01*
X246350Y128936D02*
Y131077D01*
X246370Y128936D02*
Y131077D01*
X246389Y128936D02*
Y131077D01*
X246409Y128936D02*
Y131077D01*
X246429Y128936D02*
Y131077D01*
X246448Y128936D02*
Y131077D01*
X246468Y128936D02*
Y131077D01*
X246488Y128936D02*
Y131077D01*
X246507Y128936D02*
Y131077D01*
X246527Y128936D02*
Y131077D01*
X246547Y128936D02*
Y131077D01*
X246566Y128936D02*
Y131077D01*
X246586Y128936D02*
Y131077D01*
X246606Y128936D02*
Y131077D01*
X246625Y128936D02*
Y131077D01*
X246645Y128936D02*
Y131077D01*
X246665Y128936D02*
Y131077D01*
X246684Y128936D02*
Y131077D01*
X246704Y128936D02*
Y131077D01*
X246724Y128936D02*
Y131077D01*
X246744Y128936D02*
Y131077D01*
X246763Y128936D02*
Y131077D01*
X246783Y128936D02*
Y131077D01*
X246803Y128936D02*
Y131077D01*
X246822Y128936D02*
Y131077D01*
X246842Y128936D02*
Y131077D01*
X246862Y128936D02*
Y131077D01*
X246881Y128936D02*
Y131077D01*
X246901Y128936D02*
Y131077D01*
X246921Y128936D02*
Y131077D01*
X246940Y128936D02*
Y131077D01*
X246960Y128936D02*
Y131077D01*
X246980Y128936D02*
Y131077D01*
X246999Y128936D02*
Y131077D01*
X247019Y128936D02*
Y131077D01*
X247039Y128936D02*
Y131077D01*
X247058Y128936D02*
Y131077D01*
X247078Y128936D02*
Y131077D01*
X247098Y128936D02*
Y131077D01*
X247118Y128936D02*
Y131077D01*
X247137Y128936D02*
Y131077D01*
X247157Y128936D02*
Y131077D01*
X247177Y128936D02*
Y131077D01*
X247196Y128936D02*
Y131077D01*
X247216Y128936D02*
Y131077D01*
X247236Y128936D02*
Y131077D01*
X247255Y128936D02*
Y131077D01*
X247275Y128936D02*
Y131077D01*
X247295Y128936D02*
Y131077D01*
X247314Y128936D02*
Y131077D01*
X247334Y128936D02*
Y131077D01*
X247354Y128936D02*
Y131077D01*
X247373Y128936D02*
Y131077D01*
X247393Y128936D02*
Y131077D01*
X247413Y128936D02*
Y131077D01*
X247433Y128936D02*
Y131077D01*
X247452Y128936D02*
Y131077D01*
X247472Y128936D02*
Y131077D01*
X247492Y128936D02*
Y131077D01*
X247511Y128936D02*
Y131077D01*
X247531Y128936D02*
Y131077D01*
X247551Y128936D02*
Y131077D01*
X247570Y128936D02*
Y131077D01*
X247590Y128936D02*
Y131077D01*
X247610Y128936D02*
Y131077D01*
X247629Y128936D02*
Y131077D01*
X247649Y128936D02*
Y131077D01*
X247669Y128936D02*
Y131077D01*
X247688Y128936D02*
Y131077D01*
X247708Y128936D02*
Y131077D01*
X247728Y128936D02*
Y131077D01*
X247747Y128936D02*
Y131077D01*
X247767Y128937D02*
Y131076D01*
X247787Y128939D02*
Y131073D01*
X247807Y128942D02*
Y131071D01*
X247826Y128946D02*
Y131067D01*
X247846Y128951D02*
Y131062D01*
X247866Y128956D02*
Y131057D01*
X247885Y128962D02*
Y131050D01*
X247905Y128970D02*
Y131043D01*
X247925Y128978D02*
Y131035D01*
X247944Y128988D02*
Y131025D01*
X247964Y128998D02*
Y131015D01*
X247984Y129010D02*
Y131003D01*
X248003Y129023D02*
Y130990D01*
X248023Y129037D02*
Y130976D01*
X248043Y129053D02*
Y130960D01*
X248062Y129072D02*
Y130941D01*
X248082Y129092D02*
Y130921D01*
X248102Y129115D02*
Y130898D01*
X248121Y129141D02*
Y130872D01*
X248141Y129172D02*
Y130841D01*
X248161Y129209D02*
Y130804D01*
X248181Y129256D02*
Y130757D01*
X248200Y129331D02*
Y130682D01*
X244492Y131975D02*
X244493Y131924D01*
X244496Y131873*
X244502Y131823*
X244511Y131772*
X244522Y131722*
X244535Y131673*
X244550Y131625*
X244568Y131577*
X244588Y131530*
X244611Y131484*
X244635Y131440*
X244662Y131396*
X244690Y131354*
X244721Y131313*
X244753Y131274*
X244787Y131236*
X244823Y131200*
X244861Y131166*
X244900Y131133*
X244941Y131103*
X244983Y131074*
X245027Y131048*
X245072Y131023*
X245118Y131001*
X245164Y130981*
X245212Y130963*
X245261Y130947*
X245310Y130934*
X245360Y130923*
X245410Y130915*
X245461Y130909*
X245511Y130905*
X245562Y130904*
X247728*
X247762Y130905*
X247796Y130909*
X247830Y130915*
X247863Y130924*
X247896Y130934*
X247927Y130947*
X247958Y130963*
X247987Y130980*
X248016Y131000*
X248042Y131021*
X248067Y131045*
X248091Y131070*
X248112Y131097*
X248132Y131125*
X248149Y131154*
X248165Y131185*
X248178Y131217*
X248189Y131249*
X248197Y131282*
X248203Y131316*
X248207Y131350*
X248208Y131384*
Y132566*
X248207Y132600*
X248203Y132634*
X248197Y132668*
X248189Y132701*
X248178Y132733*
X248165Y132765*
X248149Y132796*
X248132Y132825*
X248112Y132853*
X248091Y132880*
X248067Y132905*
X248042Y132929*
X248016Y132950*
X247987Y132970*
X247958Y132987*
X247927Y133002*
X247896Y133016*
X247863Y133026*
X247830Y133035*
X247796Y133041*
X247762Y133045*
X247728Y133046*
X245562*
X245511Y133045*
X245461Y133041*
X245410Y133035*
X245360Y133026*
X245310Y133016*
X245261Y133002*
X245212Y132987*
X245164Y132969*
X245118Y132949*
X245072Y132927*
X245027Y132902*
X244983Y132876*
X244941Y132847*
X244900Y132817*
X244861Y132784*
X244823Y132750*
X244787Y132714*
X244753Y132676*
X244721Y132637*
X244690Y132596*
X244662Y132554*
X244635Y132510*
X244611Y132466*
X244588Y132420*
X244568Y132373*
X244550Y132325*
X244535Y132277*
X244522Y132227*
X244511Y132178*
X244502Y132127*
X244496Y132077*
X244493Y132026*
X244492Y131975*
X244499Y131848D02*
Y132102D01*
X244519Y131735D02*
Y132215D01*
X244539Y131661D02*
Y132289D01*
X244558Y131603D02*
Y132347D01*
X244578Y131554D02*
Y132396D01*
X244598Y131510D02*
Y132439D01*
X244618Y131472D02*
Y132478D01*
X244637Y131436D02*
Y132514D01*
X244657Y131404D02*
Y132546D01*
X244677Y131374D02*
Y132576D01*
X244696Y131346D02*
Y132604D01*
X244716Y131319D02*
Y132631D01*
X244736Y131295D02*
Y132655D01*
X244755Y131271D02*
Y132679D01*
X244775Y131250D02*
Y132700D01*
X244795Y131229D02*
Y132721D01*
X244814Y131209D02*
Y132741D01*
X244834Y131190D02*
Y132760D01*
X244854Y131172D02*
Y132778D01*
X244873Y131155D02*
Y132794D01*
X244893Y131139D02*
Y132811D01*
X244913Y131124D02*
Y132826D01*
X244933Y131109D02*
Y132841D01*
X244952Y131095D02*
Y132855D01*
X244972Y131082D02*
Y132868D01*
X244992Y131069D02*
Y132881D01*
X245011Y131057D02*
Y132893D01*
X245031Y131045D02*
Y132905D01*
X245051Y131035D02*
Y132915D01*
X245070Y131024D02*
Y132926D01*
X245090Y131014D02*
Y132936D01*
X245110Y131005D02*
Y132945D01*
X245129Y130996D02*
Y132954D01*
X245149Y130987D02*
Y132963D01*
X245169Y130979D02*
Y132971D01*
X245188Y130972D02*
Y132978D01*
X245208Y130965D02*
Y132985D01*
X245228Y130958D02*
Y132992D01*
X245247Y130952D02*
Y132998D01*
X245267Y130946D02*
Y133004D01*
X245287Y130940D02*
Y133009D01*
X245307Y130935D02*
Y133015D01*
X245326Y130931D02*
Y133019D01*
X245346Y130926D02*
Y133023D01*
X245366Y130922D02*
Y133027D01*
X245385Y130919D02*
Y133031D01*
X245405Y130916D02*
Y133034D01*
X245425Y130913D02*
Y133037D01*
X245444Y130911D02*
Y133039D01*
X245464Y130909D02*
Y133041D01*
X245484Y130907D02*
Y133043D01*
X245503Y130906D02*
Y133044D01*
X245523Y130905D02*
Y133045D01*
X245543Y130905D02*
Y133045D01*
X245562Y130904D02*
Y133046D01*
X245582Y130904D02*
Y133046D01*
X245602Y130904D02*
Y133046D01*
X245621Y130904D02*
Y133046D01*
X245641Y130904D02*
Y133046D01*
X245661Y130904D02*
Y133046D01*
X245681Y130904D02*
Y133046D01*
X245700Y130904D02*
Y133046D01*
X245720Y130904D02*
Y133046D01*
X245740Y130904D02*
Y133046D01*
X245759Y130904D02*
Y133046D01*
X245779Y130904D02*
Y133046D01*
X245799Y130904D02*
Y133046D01*
X245818Y130904D02*
Y133046D01*
X245838Y130904D02*
Y133046D01*
X245858Y130904D02*
Y133046D01*
X245877Y130904D02*
Y133046D01*
X245897Y130904D02*
Y133046D01*
X245917Y130904D02*
Y133046D01*
X245936Y130904D02*
Y133046D01*
X245956Y130904D02*
Y133046D01*
X245976Y130904D02*
Y133046D01*
X245996Y130904D02*
Y133046D01*
X246015Y130904D02*
Y133046D01*
X246035Y130904D02*
Y133046D01*
X246055Y130904D02*
Y133046D01*
X246074Y130904D02*
Y133046D01*
X246094Y130904D02*
Y133046D01*
X246114Y130904D02*
Y133046D01*
X246133Y130904D02*
Y133046D01*
X246153Y130904D02*
Y133046D01*
X246173Y130904D02*
Y133046D01*
X246192Y130904D02*
Y133046D01*
X246212Y130904D02*
Y133046D01*
X246232Y130904D02*
Y133046D01*
X246251Y130904D02*
Y133046D01*
X246271Y130904D02*
Y133046D01*
X246291Y130904D02*
Y133046D01*
X246310Y130904D02*
Y133046D01*
X246330Y130904D02*
Y133046D01*
X246350Y130904D02*
Y133046D01*
X246370Y130904D02*
Y133046D01*
X246389Y130904D02*
Y133046D01*
X246409Y130904D02*
Y133046D01*
X246429Y130904D02*
Y133046D01*
X246448Y130904D02*
Y133046D01*
X246468Y130904D02*
Y133046D01*
X246488Y130904D02*
Y133046D01*
X246507Y130904D02*
Y133046D01*
X246527Y130904D02*
Y133046D01*
X246547Y130904D02*
Y133046D01*
X246566Y130904D02*
Y133046D01*
X246586Y130904D02*
Y133046D01*
X246606Y130904D02*
Y133046D01*
X246625Y130904D02*
Y133046D01*
X246645Y130904D02*
Y133046D01*
X246665Y130904D02*
Y133046D01*
X246684Y130904D02*
Y133046D01*
X246704Y130904D02*
Y133046D01*
X246724Y130904D02*
Y133046D01*
X246744Y130904D02*
Y133046D01*
X246763Y130904D02*
Y133046D01*
X246783Y130904D02*
Y133046D01*
X246803Y130904D02*
Y133046D01*
X246822Y130904D02*
Y133046D01*
X246842Y130904D02*
Y133046D01*
X246862Y130904D02*
Y133046D01*
X246881Y130904D02*
Y133046D01*
X246901Y130904D02*
Y133046D01*
X246921Y130904D02*
Y133046D01*
X246940Y130904D02*
Y133046D01*
X246960Y130904D02*
Y133046D01*
X246980Y130904D02*
Y133046D01*
X246999Y130904D02*
Y133046D01*
X247019Y130904D02*
Y133046D01*
X247039Y130904D02*
Y133046D01*
X247058Y130904D02*
Y133046D01*
X247078Y130904D02*
Y133046D01*
X247098Y130904D02*
Y133046D01*
X247118Y130904D02*
Y133046D01*
X247137Y130904D02*
Y133046D01*
X247157Y130904D02*
Y133046D01*
X247177Y130904D02*
Y133046D01*
X247196Y130904D02*
Y133046D01*
X247216Y130904D02*
Y133046D01*
X247236Y130904D02*
Y133046D01*
X247255Y130904D02*
Y133046D01*
X247275Y130904D02*
Y133046D01*
X247295Y130904D02*
Y133046D01*
X247314Y130904D02*
Y133046D01*
X247334Y130904D02*
Y133046D01*
X247354Y130904D02*
Y133046D01*
X247373Y130904D02*
Y133046D01*
X247393Y130904D02*
Y133046D01*
X247413Y130904D02*
Y133046D01*
X247433Y130904D02*
Y133046D01*
X247452Y130904D02*
Y133046D01*
X247472Y130904D02*
Y133046D01*
X247492Y130904D02*
Y133046D01*
X247511Y130904D02*
Y133046D01*
X247531Y130904D02*
Y133046D01*
X247551Y130904D02*
Y133046D01*
X247570Y130904D02*
Y133046D01*
X247590Y130904D02*
Y133046D01*
X247610Y130904D02*
Y133046D01*
X247629Y130904D02*
Y133046D01*
X247649Y130904D02*
Y133046D01*
X247669Y130904D02*
Y133046D01*
X247688Y130904D02*
Y133046D01*
X247708Y130904D02*
Y133046D01*
X247728Y130904D02*
Y133046D01*
X247747Y130905D02*
Y133045D01*
X247767Y130906D02*
Y133044D01*
X247787Y130908D02*
Y133042D01*
X247807Y130911D02*
Y133039D01*
X247826Y130914D02*
Y133036D01*
X247846Y130919D02*
Y133031D01*
X247866Y130924D02*
Y133026D01*
X247885Y130931D02*
Y133019D01*
X247905Y130938D02*
Y133012D01*
X247925Y130946D02*
Y133004D01*
X247944Y130956D02*
Y132994D01*
X247964Y130966D02*
Y132983D01*
X247984Y130978D02*
Y132972D01*
X248003Y130991D02*
Y132959D01*
X248023Y131006D02*
Y132944D01*
X248043Y131022D02*
Y132928D01*
X248062Y131040D02*
Y132910D01*
X248082Y131061D02*
Y132889D01*
X248102Y131084D02*
Y132866D01*
X248121Y131110D02*
Y132840D01*
X248141Y131140D02*
Y132809D01*
X248161Y131177D02*
Y132773D01*
X248181Y131225D02*
Y132725D01*
X248200Y131300D02*
Y132650D01*
X236224Y131384D02*
X236225Y131350D01*
X236229Y131316*
X236235Y131282*
X236243Y131249*
X236254Y131217*
X236267Y131185*
X236283Y131154*
X236300Y131125*
X236320Y131097*
X236341Y131070*
X236365Y131045*
X236390Y131021*
X236416Y131000*
X236444Y130980*
X236474Y130963*
X236505Y130947*
X236536Y130934*
X236569Y130924*
X236602Y130915*
X236636Y130909*
X236670Y130905*
X236704Y130904*
X238870*
X238920Y130905*
X238971Y130909*
X239022Y130915*
X239072Y130923*
X239122Y130934*
X239171Y130947*
X239220Y130963*
X239268Y130981*
X239314Y131001*
X239360Y131023*
X239405Y131048*
X239448Y131074*
X239491Y131103*
X239531Y131133*
X239571Y131166*
X239608Y131200*
X239608D02*
X239645Y131236D01*
X239679Y131274*
X239711Y131313*
X239742Y131354*
X239770Y131396*
X239797Y131440*
X239821Y131484*
X239844Y131530*
X239864Y131577*
X239881Y131625*
X239897Y131673*
X239910Y131722*
X239921Y131772*
X239929Y131823*
X239936Y131873*
X239939Y131924*
X239940Y131975*
X239939Y132026*
X239936Y132077*
X239929Y132127*
X239921Y132178*
X239910Y132227*
X239897Y132277*
X239881Y132325*
X239864Y132373*
X239844Y132420*
X239821Y132466*
X239797Y132510*
X239770Y132554*
X239742Y132596*
X239711Y132637*
X239679Y132676*
X239645Y132714*
X239608Y132750*
X239608D02*
X239571Y132784D01*
X239531Y132817*
X239491Y132847*
X239448Y132876*
X239405Y132902*
X239360Y132927*
X239314Y132949*
X239268Y132969*
X239220Y132987*
X239171Y133002*
X239122Y133016*
X239072Y133026*
X239022Y133035*
X238971Y133041*
X238920Y133045*
X238870Y133046*
X236704*
X236670Y133045*
X236636Y133041*
X236602Y133035*
X236569Y133026*
X236536Y133016*
X236505Y133002*
X236474Y132987*
X236444Y132970*
X236416Y132950*
X236390Y132929*
X236365Y132905*
X236341Y132880*
X236320Y132853*
X236300Y132825*
X236283Y132796*
X236267Y132765*
X236254Y132733*
X236243Y132701*
X236235Y132668*
X236229Y132634*
X236225Y132600*
X236224Y132566*
Y131384*
X236232Y131300D02*
Y132650D01*
X236251Y131225D02*
Y132725D01*
X236271Y131177D02*
Y132773D01*
X236291Y131140D02*
Y132809D01*
X236310Y131110D02*
Y132840D01*
X236330Y131084D02*
Y132866D01*
X236350Y131061D02*
Y132889D01*
X236370Y131040D02*
Y132910D01*
X236389Y131022D02*
Y132928D01*
X236409Y131006D02*
Y132944D01*
X236429Y130991D02*
Y132959D01*
X236448Y130978D02*
Y132972D01*
X236468Y130966D02*
Y132983D01*
X236488Y130956D02*
Y132994D01*
X236507Y130946D02*
Y133004D01*
X236527Y130938D02*
Y133012D01*
X236547Y130931D02*
Y133019D01*
X236566Y130924D02*
Y133026D01*
X236586Y130919D02*
Y133031D01*
X236606Y130914D02*
Y133036D01*
X236625Y130911D02*
Y133039D01*
X236645Y130908D02*
Y133042D01*
X236665Y130906D02*
Y133044D01*
X236684Y130905D02*
Y133045D01*
X236704Y130904D02*
Y133046D01*
X236724Y130904D02*
Y133046D01*
X236744Y130904D02*
Y133046D01*
X236763Y130904D02*
Y133046D01*
X236783Y130904D02*
Y133046D01*
X236803Y130904D02*
Y133046D01*
X236822Y130904D02*
Y133046D01*
X236842Y130904D02*
Y133046D01*
X236862Y130904D02*
Y133046D01*
X236881Y130904D02*
Y133046D01*
X236901Y130904D02*
Y133046D01*
X236921Y130904D02*
Y133046D01*
X236940Y130904D02*
Y133046D01*
X236960Y130904D02*
Y133046D01*
X236980Y130904D02*
Y133046D01*
X236999Y130904D02*
Y133046D01*
X237019Y130904D02*
Y133046D01*
X237039Y130904D02*
Y133046D01*
X237058Y130904D02*
Y133046D01*
X237078Y130904D02*
Y133046D01*
X237098Y130904D02*
Y133046D01*
X237118Y130904D02*
Y133046D01*
X237137Y130904D02*
Y133046D01*
X237157Y130904D02*
Y133046D01*
X237177Y130904D02*
Y133046D01*
X237196Y130904D02*
Y133046D01*
X237216Y130904D02*
Y133046D01*
X237236Y130904D02*
Y133046D01*
X237255Y130904D02*
Y133046D01*
X237275Y130904D02*
Y133046D01*
X237295Y130904D02*
Y133046D01*
X237314Y130904D02*
Y133046D01*
X237334Y130904D02*
Y133046D01*
X237354Y130904D02*
Y133046D01*
X237373Y130904D02*
Y133046D01*
X237393Y130904D02*
Y133046D01*
X237413Y130904D02*
Y133046D01*
X237433Y130904D02*
Y133046D01*
X237452Y130904D02*
Y133046D01*
X237472Y130904D02*
Y133046D01*
X237492Y130904D02*
Y133046D01*
X237511Y130904D02*
Y133046D01*
X237531Y130904D02*
Y133046D01*
X237551Y130904D02*
Y133046D01*
X237570Y130904D02*
Y133046D01*
X237590Y130904D02*
Y133046D01*
X237610Y130904D02*
Y133046D01*
X237629Y130904D02*
Y133046D01*
X237649Y130904D02*
Y133046D01*
X237669Y130904D02*
Y133046D01*
X237688Y130904D02*
Y133046D01*
X237708Y130904D02*
Y133046D01*
X237728Y130904D02*
Y133046D01*
X237747Y130904D02*
Y133046D01*
X237767Y130904D02*
Y133046D01*
X237787Y130904D02*
Y133046D01*
X237807Y130904D02*
Y133046D01*
X237826Y130904D02*
Y133046D01*
X237846Y130904D02*
Y133046D01*
X237866Y130904D02*
Y133046D01*
X237885Y130904D02*
Y133046D01*
X237905Y130904D02*
Y133046D01*
X237925Y130904D02*
Y133046D01*
X237944Y130904D02*
Y133046D01*
X237964Y130904D02*
Y133046D01*
X237984Y130904D02*
Y133046D01*
X238003Y130904D02*
Y133046D01*
X238023Y130904D02*
Y133046D01*
X238043Y130904D02*
Y133046D01*
X238062Y130904D02*
Y133046D01*
X238082Y130904D02*
Y133046D01*
X238102Y130904D02*
Y133046D01*
X238121Y130904D02*
Y133046D01*
X238141Y130904D02*
Y133046D01*
X238161Y130904D02*
Y133046D01*
X238181Y130904D02*
Y133046D01*
X238200Y130904D02*
Y133046D01*
X238220Y130904D02*
Y133046D01*
X238240Y130904D02*
Y133046D01*
X238259Y130904D02*
Y133046D01*
X238279Y130904D02*
Y133046D01*
X238299Y130904D02*
Y133046D01*
X238318Y130904D02*
Y133046D01*
X238338Y130904D02*
Y133046D01*
X238358Y130904D02*
Y133046D01*
X238377Y130904D02*
Y133046D01*
X238397Y130904D02*
Y133046D01*
X238417Y130904D02*
Y133046D01*
X238436Y130904D02*
Y133046D01*
X238456Y130904D02*
Y133046D01*
X238476Y130904D02*
Y133046D01*
X238496Y130904D02*
Y133046D01*
X238515Y130904D02*
Y133046D01*
X238535Y130904D02*
Y133046D01*
X238555Y130904D02*
Y133046D01*
X238574Y130904D02*
Y133046D01*
X238594Y130904D02*
Y133046D01*
X238614Y130904D02*
Y133046D01*
X238633Y130904D02*
Y133046D01*
X238653Y130904D02*
Y133046D01*
X238673Y130904D02*
Y133046D01*
X238692Y130904D02*
Y133046D01*
X238712Y130904D02*
Y133046D01*
X238732Y130904D02*
Y133046D01*
X238751Y130904D02*
Y133046D01*
X238771Y130904D02*
Y133046D01*
X238791Y130904D02*
Y133046D01*
X238810Y130904D02*
Y133046D01*
X238830Y130904D02*
Y133046D01*
X238850Y130904D02*
Y133046D01*
X238870Y130904D02*
Y133046D01*
X238889Y130905D02*
Y133045D01*
X238909Y130905D02*
Y133045D01*
X238929Y130906D02*
Y133044D01*
X238948Y130907D02*
Y133043D01*
X238968Y130909D02*
Y133041D01*
X238988Y130911D02*
Y133039D01*
X239007Y130913D02*
Y133037D01*
X239027Y130916D02*
Y133034D01*
X239047Y130919D02*
Y133031D01*
X239066Y130922D02*
Y133027D01*
X239086Y130926D02*
Y133023D01*
X239106Y130931D02*
Y133019D01*
X239125Y130935D02*
Y133015D01*
X239145Y130940D02*
Y133009D01*
X239165Y130946D02*
Y133004D01*
X239184Y130952D02*
Y132998D01*
X239204Y130958D02*
Y132992D01*
X239224Y130965D02*
Y132985D01*
X239244Y130972D02*
Y132978D01*
X239263Y130979D02*
Y132971D01*
X239283Y130987D02*
Y132963D01*
X239303Y130996D02*
Y132954D01*
X239322Y131005D02*
Y132945D01*
X239342Y131014D02*
Y132936D01*
X239362Y131024D02*
Y132926D01*
X239381Y131035D02*
Y132915D01*
X239401Y131045D02*
Y132905D01*
X239421Y131057D02*
Y132893D01*
X239440Y131069D02*
Y132881D01*
X239460Y131082D02*
Y132868D01*
X239480Y131095D02*
Y132855D01*
X239499Y131109D02*
Y132841D01*
X239519Y131124D02*
Y132826D01*
X239539Y131139D02*
Y132811D01*
X239558Y131155D02*
Y132794D01*
X239578Y131172D02*
Y132778D01*
X239598Y131190D02*
Y132760D01*
X239618Y131209D02*
Y132741D01*
X239637Y131229D02*
Y132721D01*
X239657Y131250D02*
Y132700D01*
X239677Y131271D02*
Y132679D01*
X239696Y131295D02*
Y132655D01*
X239716Y131319D02*
Y132631D01*
X239736Y131346D02*
Y132604D01*
X239755Y131374D02*
Y132576D01*
X239775Y131404D02*
Y132546D01*
X239795Y131436D02*
Y132514D01*
X239814Y131472D02*
Y132478D01*
X239834Y131510D02*
Y132439D01*
X239854Y131554D02*
Y132396D01*
X239873Y131603D02*
Y132347D01*
X239893Y131661D02*
Y132289D01*
X239913Y131735D02*
Y132215D01*
X239933Y131848D02*
Y132102D01*
X236224Y129416D02*
X236225Y129382D01*
X236229Y129348*
X236235Y129314*
X236243Y129281*
X236254Y129248*
X236267Y129216*
X236283Y129186*
X236300Y129156*
X236320Y129128*
X236341Y129101*
X236365Y129076*
X236390Y129053*
X236416Y129031*
X236444Y129012*
X236474Y128994*
X236505Y128979*
X236536Y128966*
X236569Y128955*
X236602Y128947*
X236636Y128940*
X236670Y128937*
X236704Y128936*
X238870*
X238920Y128937*
X238971Y128940*
X239022Y128946*
X239072Y128955*
X239122Y128966*
X239171Y128979*
X239220Y128994*
X239268Y129012*
X239314Y129032*
X239360Y129055*
X239405Y129079*
X239448Y129106*
X239491Y129134*
X239531Y129165*
X239571Y129197*
X239608Y129231*
X239608D02*
X239645Y129267D01*
X239679Y129305*
X239711Y129344*
X239742Y129385*
X239770Y129427*
X239770D02*
X239797Y129471D01*
X239821Y129516*
X239844Y129562*
X239864Y129608*
X239881Y129656*
X239897Y129705*
X239910Y129754*
X239921Y129804*
X239929Y129854*
X239936Y129905*
X239939Y129955*
X239939D02*
X239940Y130006D01*
X239939Y130057*
X239936Y130108*
X239929Y130159*
X239921Y130209*
X239910Y130259*
X239897Y130308*
X239881Y130357*
X239864Y130404*
X239844Y130451*
X239821Y130497*
X239797Y130542*
X239770Y130585*
X239742Y130628*
X239711Y130668*
X239679Y130708*
X239645Y130745*
X239608Y130781*
X239608D02*
X239571Y130816D01*
X239531Y130848*
X239491Y130879*
X239448Y130907*
X239405Y130934*
X239360Y130958*
X239314Y130981*
X239268Y131001*
X239220Y131018*
X239171Y131034*
X239122Y131047*
X239072Y131058*
X239022Y131066*
X238971Y131072*
X238920Y131076*
X238870Y131077*
X236704*
X236670Y131076*
X236636Y131072*
X236602Y131066*
X236569Y131058*
X236536Y131047*
X236505Y131034*
X236474Y131019*
X236444Y131001*
X236416Y130982*
X236390Y130960*
X236365Y130937*
X236341Y130912*
X236320Y130885*
X236300Y130857*
X236283Y130827*
X236267Y130797*
X236254Y130765*
X236243Y130732*
X236235Y130699*
X236229Y130665*
X236225Y130631*
X236224Y130597*
Y129416*
X236232Y129331D02*
Y130682D01*
X236251Y129256D02*
Y130757D01*
X236271Y129209D02*
Y130804D01*
X236291Y129172D02*
Y130841D01*
X236310Y129141D02*
Y130872D01*
X236330Y129115D02*
Y130898D01*
X236350Y129092D02*
Y130921D01*
X236370Y129072D02*
Y130941D01*
X236389Y129053D02*
Y130960D01*
X236409Y129037D02*
Y130976D01*
X236429Y129023D02*
Y130990D01*
X236448Y129010D02*
Y131003D01*
X236468Y128998D02*
Y131015D01*
X236488Y128988D02*
Y131025D01*
X236507Y128978D02*
Y131035D01*
X236527Y128970D02*
Y131043D01*
X236547Y128962D02*
Y131050D01*
X236566Y128956D02*
Y131057D01*
X236586Y128951D02*
Y131062D01*
X236606Y128946D02*
Y131067D01*
X236625Y128942D02*
Y131071D01*
X236645Y128939D02*
Y131073D01*
X236665Y128937D02*
Y131076D01*
X236684Y128936D02*
Y131077D01*
X236704Y128936D02*
Y131077D01*
X236724Y128936D02*
Y131077D01*
X236744Y128936D02*
Y131077D01*
X236763Y128936D02*
Y131077D01*
X236783Y128936D02*
Y131077D01*
X236803Y128936D02*
Y131077D01*
X236822Y128936D02*
Y131077D01*
X236842Y128936D02*
Y131077D01*
X236862Y128936D02*
Y131077D01*
X236881Y128936D02*
Y131077D01*
X236901Y128936D02*
Y131077D01*
X236921Y128936D02*
Y131077D01*
X236940Y128936D02*
Y131077D01*
X236960Y128936D02*
Y131077D01*
X236980Y128936D02*
Y131077D01*
X236999Y128936D02*
Y131077D01*
X237019Y128936D02*
Y131077D01*
X237039Y128936D02*
Y131077D01*
X237058Y128936D02*
Y131077D01*
X237078Y128936D02*
Y131077D01*
X237098Y128936D02*
Y131077D01*
X237118Y128936D02*
Y131077D01*
X237137Y128936D02*
Y131077D01*
X237157Y128936D02*
Y131077D01*
X237177Y128936D02*
Y131077D01*
X237196Y128936D02*
Y131077D01*
X237216Y128936D02*
Y131077D01*
X237236Y128936D02*
Y131077D01*
X237255Y128936D02*
Y131077D01*
X237275Y128936D02*
Y131077D01*
X237295Y128936D02*
Y131077D01*
X237314Y128936D02*
Y131077D01*
X237334Y128936D02*
Y131077D01*
X237354Y128936D02*
Y131077D01*
X237373Y128936D02*
Y131077D01*
X237393Y128936D02*
Y131077D01*
X237413Y128936D02*
Y131077D01*
X237433Y128936D02*
Y131077D01*
X237452Y128936D02*
Y131077D01*
X237472Y128936D02*
Y131077D01*
X237492Y128936D02*
Y131077D01*
X237511Y128936D02*
Y131077D01*
X237531Y128936D02*
Y131077D01*
X237551Y128936D02*
Y131077D01*
X237570Y128936D02*
Y131077D01*
X237590Y128936D02*
Y131077D01*
X237610Y128936D02*
Y131077D01*
X237629Y128936D02*
Y131077D01*
X237649Y128936D02*
Y131077D01*
X237669Y128936D02*
Y131077D01*
X237688Y128936D02*
Y131077D01*
X237708Y128936D02*
Y131077D01*
X237728Y128936D02*
Y131077D01*
X237747Y128936D02*
Y131077D01*
X237767Y128936D02*
Y131077D01*
X237787Y128936D02*
Y131077D01*
X237807Y128936D02*
Y131077D01*
X237826Y128936D02*
Y131077D01*
X237846Y128936D02*
Y131077D01*
X237866Y128936D02*
Y131077D01*
X237885Y128936D02*
Y131077D01*
X237905Y128936D02*
Y131077D01*
X237925Y128936D02*
Y131077D01*
X237944Y128936D02*
Y131077D01*
X237964Y128936D02*
Y131077D01*
X237984Y128936D02*
Y131077D01*
X238003Y128936D02*
Y131077D01*
X238023Y128936D02*
Y131077D01*
X238043Y128936D02*
Y131077D01*
X238062Y128936D02*
Y131077D01*
X238082Y128936D02*
Y131077D01*
X238102Y128936D02*
Y131077D01*
X238121Y128936D02*
Y131077D01*
X238141Y128936D02*
Y131077D01*
X238161Y128936D02*
Y131077D01*
X238181Y128936D02*
Y131077D01*
X238200Y128936D02*
Y131077D01*
X238220Y128936D02*
Y131077D01*
X238240Y128936D02*
Y131077D01*
X238259Y128936D02*
Y131077D01*
X238279Y128936D02*
Y131077D01*
X238299Y128936D02*
Y131077D01*
X238318Y128936D02*
Y131077D01*
X238338Y128936D02*
Y131077D01*
X238358Y128936D02*
Y131077D01*
X238377Y128936D02*
Y131077D01*
X238397Y128936D02*
Y131077D01*
X238417Y128936D02*
Y131077D01*
X238436Y128936D02*
Y131077D01*
X238456Y128936D02*
Y131077D01*
X238476Y128936D02*
Y131077D01*
X238496Y128936D02*
Y131077D01*
X238515Y128936D02*
Y131077D01*
X238535Y128936D02*
Y131077D01*
X238555Y128936D02*
Y131077D01*
X238574Y128936D02*
Y131077D01*
X238594Y128936D02*
Y131077D01*
X238614Y128936D02*
Y131077D01*
X238633Y128936D02*
Y131077D01*
X238653Y128936D02*
Y131077D01*
X238673Y128936D02*
Y131077D01*
X238692Y128936D02*
Y131077D01*
X238712Y128936D02*
Y131077D01*
X238732Y128936D02*
Y131077D01*
X238751Y128936D02*
Y131077D01*
X238771Y128936D02*
Y131077D01*
X238791Y128936D02*
Y131077D01*
X238810Y128936D02*
Y131077D01*
X238830Y128936D02*
Y131077D01*
X238850Y128936D02*
Y131077D01*
X238870Y128936D02*
Y131077D01*
X238889Y128936D02*
Y131077D01*
X238909Y128937D02*
Y131076D01*
X238929Y128937D02*
Y131076D01*
X238948Y128939D02*
Y131074D01*
X238968Y128940D02*
Y131073D01*
X238988Y128942D02*
Y131071D01*
X239007Y128945D02*
Y131068D01*
X239027Y128947D02*
Y131066D01*
X239047Y128951D02*
Y131062D01*
X239066Y128954D02*
Y131059D01*
X239086Y128958D02*
Y131055D01*
X239106Y128962D02*
Y131051D01*
X239125Y128967D02*
Y131046D01*
X239145Y128972D02*
Y131041D01*
X239165Y128977D02*
Y131036D01*
X239184Y128983D02*
Y131030D01*
X239204Y128989D02*
Y131023D01*
X239224Y128996D02*
Y131017D01*
X239244Y129003D02*
Y131010D01*
X239263Y129011D02*
Y131002D01*
X239283Y129019D02*
Y130994D01*
X239303Y129027D02*
Y130986D01*
X239322Y129036D02*
Y130977D01*
X239342Y129046D02*
Y130967D01*
X239362Y129055D02*
Y130957D01*
X239381Y129066D02*
Y130947D01*
X239401Y129077D02*
Y130936D01*
X239421Y129089D02*
Y130924D01*
X239440Y129101D02*
Y130912D01*
X239460Y129113D02*
Y130899D01*
X239480Y129127D02*
Y130886D01*
X239499Y129141D02*
Y130872D01*
X239519Y129155D02*
Y130857D01*
X239539Y129171D02*
Y130842D01*
X239558Y129187D02*
Y130826D01*
X239578Y129204D02*
Y130809D01*
X239598Y129222D02*
Y130791D01*
X239618Y129240D02*
Y130772D01*
X239637Y129260D02*
Y130753D01*
X239657Y129281D02*
Y130732D01*
X239677Y129303D02*
Y130710D01*
X239696Y129326D02*
Y130687D01*
X239716Y129351D02*
Y130662D01*
X239736Y129377D02*
Y130636D01*
X239755Y129405D02*
Y130608D01*
X239775Y129435D02*
Y130578D01*
X239795Y129467D02*
Y130545D01*
X239814Y129503D02*
Y130510D01*
X239834Y129542D02*
Y130471D01*
X239854Y129585D02*
Y130428D01*
X239873Y129635D02*
Y130378D01*
X239893Y129693D02*
Y130320D01*
X239913Y129766D02*
Y130247D01*
X239933Y129879D02*
Y130134D01*
X236224Y127447D02*
X236225Y127413D01*
X236229Y127379*
X236235Y127345*
X236243Y127312*
X236254Y127280*
X236267Y127248*
X236283Y127217*
X236300Y127188*
X236320Y127160*
X236341Y127133*
X236365Y127108*
X236390Y127084*
X236416Y127063*
X236444Y127043*
X236474Y127026*
X236505Y127010*
X236536Y126997*
X236569Y126987*
X236602Y126978*
X236636Y126972*
X236670Y126968*
X236704Y126967*
X238870*
X238920Y126968*
X238971Y126972*
X239022Y126978*
X239072Y126986*
X239122Y126997*
X239171Y127010*
X239220Y127026*
X239268Y127044*
X239314Y127064*
X239360Y127086*
X239405Y127111*
X239448Y127137*
X239491Y127166*
X239531Y127196*
X239571Y127229*
X239608Y127263*
X239608D02*
X239645Y127299D01*
X239679Y127337*
X239711Y127376*
X239742Y127417*
X239770Y127459*
X239797Y127503*
X239821Y127547*
X239844Y127593*
X239864Y127640*
X239881Y127688*
X239897Y127736*
X239910Y127785*
X239921Y127835*
X239929Y127886*
X239936Y127936*
X239939Y127987*
X239940Y128038*
X239939Y128089*
X239936Y128140*
X239929Y128190*
X239921Y128241*
X239910Y128290*
X239897Y128340*
X239881Y128388*
X239864Y128436*
X239844Y128483*
X239821Y128529*
X239797Y128573*
X239770Y128617*
X239742Y128659*
X239711Y128700*
X239679Y128739*
X239645Y128777*
X239608Y128813*
X239608D02*
X239571Y128847D01*
X239531Y128880*
X239491Y128910*
X239448Y128939*
X239405Y128965*
X239360Y128990*
X239314Y129012*
X239268Y129032*
X239220Y129050*
X239171Y129065*
X239122Y129079*
X239072Y129089*
X239022Y129098*
X238971Y129104*
X238920Y129108*
X238870Y129109*
X236704*
X236670Y129108*
X236636Y129104*
X236602Y129098*
X236569Y129089*
X236536Y129079*
X236505Y129065*
X236474Y129050*
X236444Y129033*
X236416Y129013*
X236390Y128991*
X236365Y128968*
X236341Y128943*
X236320Y128916*
X236300Y128888*
X236283Y128859*
X236267Y128828*
X236254Y128796*
X236243Y128764*
X236235Y128731*
X236229Y128697*
X236225Y128663*
X236224Y128628*
X236224D02*
Y127447D01*
X236232Y127362D02*
Y128713D01*
X236251Y127288D02*
Y128788D01*
X236271Y127240D02*
Y128836D01*
X236291Y127203D02*
Y128872D01*
X236310Y127173D02*
Y128903D01*
X236330Y127147D02*
Y128929D01*
X236350Y127124D02*
Y128952D01*
X236370Y127103D02*
Y128973D01*
X236389Y127085D02*
Y128991D01*
X236409Y127069D02*
Y129007D01*
X236429Y127054D02*
Y129022D01*
X236448Y127041D02*
Y129035D01*
X236468Y127029D02*
Y129046D01*
X236488Y127019D02*
Y129057D01*
X236507Y127009D02*
Y129067D01*
X236527Y127001D02*
Y129075D01*
X236547Y126994D02*
Y129082D01*
X236566Y126987D02*
Y129089D01*
X236586Y126982D02*
Y129094D01*
X236606Y126977D02*
Y129098D01*
X236625Y126974D02*
Y129102D01*
X236645Y126971D02*
Y129105D01*
X236665Y126969D02*
Y129107D01*
X236684Y126968D02*
Y129108D01*
X236704Y126967D02*
Y129109D01*
X236724Y126967D02*
Y129109D01*
X236744Y126967D02*
Y129109D01*
X236763Y126967D02*
Y129109D01*
X236783Y126967D02*
Y129109D01*
X236803Y126967D02*
Y129109D01*
X236822Y126967D02*
Y129109D01*
X236842Y126967D02*
Y129109D01*
X236862Y126967D02*
Y129109D01*
X236881Y126967D02*
Y129109D01*
X236901Y126967D02*
Y129109D01*
X236921Y126967D02*
Y129109D01*
X236940Y126967D02*
Y129109D01*
X236960Y126967D02*
Y129109D01*
X236980Y126967D02*
Y129109D01*
X236999Y126967D02*
Y129109D01*
X237019Y126967D02*
Y129109D01*
X237039Y126967D02*
Y129109D01*
X237058Y126967D02*
Y129109D01*
X237078Y126967D02*
Y129109D01*
X237098Y126967D02*
Y129109D01*
X237118Y126967D02*
Y129109D01*
X237137Y126967D02*
Y129109D01*
X237157Y126967D02*
Y129109D01*
X237177Y126967D02*
Y129109D01*
X237196Y126967D02*
Y129109D01*
X237216Y126967D02*
Y129109D01*
X237236Y126967D02*
Y129109D01*
X237255Y126967D02*
Y129109D01*
X237275Y126967D02*
Y129109D01*
X237295Y126967D02*
Y129109D01*
X237314Y126967D02*
Y129109D01*
X237334Y126967D02*
Y129109D01*
X237354Y126967D02*
Y129109D01*
X237373Y126967D02*
Y129109D01*
X237393Y126967D02*
Y129109D01*
X237413Y126967D02*
Y129109D01*
X237433Y126967D02*
Y129109D01*
X237452Y126967D02*
Y129109D01*
X237472Y126967D02*
Y129109D01*
X237492Y126967D02*
Y129109D01*
X237511Y126967D02*
Y129109D01*
X237531Y126967D02*
Y129109D01*
X237551Y126967D02*
Y129109D01*
X237570Y126967D02*
Y129109D01*
X237590Y126967D02*
Y129109D01*
X237610Y126967D02*
Y129109D01*
X237629Y126967D02*
Y129109D01*
X237649Y126967D02*
Y129109D01*
X237669Y126967D02*
Y129109D01*
X237688Y126967D02*
Y129109D01*
X237708Y126967D02*
Y129109D01*
X237728Y126967D02*
Y129109D01*
X237747Y126967D02*
Y129109D01*
X237767Y126967D02*
Y129109D01*
X237787Y126967D02*
Y129109D01*
X237807Y126967D02*
Y129109D01*
X237826Y126967D02*
Y129109D01*
X237846Y126967D02*
Y129109D01*
X237866Y126967D02*
Y129109D01*
X237885Y126967D02*
Y129109D01*
X237905Y126967D02*
Y129109D01*
X237925Y126967D02*
Y129109D01*
X237944Y126967D02*
Y129109D01*
X237964Y126967D02*
Y129109D01*
X237984Y126967D02*
Y129109D01*
X238003Y126967D02*
Y129109D01*
X238023Y126967D02*
Y129109D01*
X238043Y126967D02*
Y129109D01*
X238062Y126967D02*
Y129109D01*
X238082Y126967D02*
Y129109D01*
X238102Y126967D02*
Y129109D01*
X238121Y126967D02*
Y129109D01*
X238141Y126967D02*
Y129109D01*
X238161Y126967D02*
Y129109D01*
X238181Y126967D02*
Y129109D01*
X238200Y126967D02*
Y129109D01*
X238220Y126967D02*
Y129109D01*
X238240Y126967D02*
Y129109D01*
X238259Y126967D02*
Y129109D01*
X238279Y126967D02*
Y129109D01*
X238299Y126967D02*
Y129109D01*
X238318Y126967D02*
Y129109D01*
X238338Y126967D02*
Y129109D01*
X238358Y126967D02*
Y129109D01*
X238377Y126967D02*
Y129109D01*
X238397Y126967D02*
Y129109D01*
X238417Y126967D02*
Y129109D01*
X238436Y126967D02*
Y129109D01*
X238456Y126967D02*
Y129109D01*
X238476Y126967D02*
Y129109D01*
X238496Y126967D02*
Y129109D01*
X238515Y126967D02*
Y129109D01*
X238535Y126967D02*
Y129109D01*
X238555Y126967D02*
Y129109D01*
X238574Y126967D02*
Y129109D01*
X238594Y126967D02*
Y129109D01*
X238614Y126967D02*
Y129109D01*
X238633Y126967D02*
Y129109D01*
X238653Y126967D02*
Y129109D01*
X238673Y126967D02*
Y129109D01*
X238692Y126967D02*
Y129109D01*
X238712Y126967D02*
Y129109D01*
X238732Y126967D02*
Y129109D01*
X238751Y126967D02*
Y129109D01*
X238771Y126967D02*
Y129109D01*
X238791Y126967D02*
Y129109D01*
X238810Y126967D02*
Y129109D01*
X238830Y126967D02*
Y129109D01*
X238850Y126967D02*
Y129109D01*
X238870Y126967D02*
Y129109D01*
X238889Y126968D02*
Y129108D01*
X238909Y126968D02*
Y129108D01*
X238929Y126969D02*
Y129107D01*
X238948Y126970D02*
Y129106D01*
X238968Y126972D02*
Y129104D01*
X238988Y126974D02*
Y129102D01*
X239007Y126976D02*
Y129100D01*
X239027Y126979D02*
Y129097D01*
X239047Y126982D02*
Y129094D01*
X239066Y126985D02*
Y129090D01*
X239086Y126989D02*
Y129086D01*
X239106Y126994D02*
Y129082D01*
X239125Y126998D02*
Y129078D01*
X239145Y127003D02*
Y129072D01*
X239165Y127009D02*
Y129067D01*
X239184Y127015D02*
Y129061D01*
X239204Y127021D02*
Y129055D01*
X239224Y127028D02*
Y129048D01*
X239244Y127035D02*
Y129041D01*
X239263Y127042D02*
Y129034D01*
X239283Y127050D02*
Y129026D01*
X239303Y127059D02*
Y129017D01*
X239322Y127068D02*
Y129008D01*
X239342Y127077D02*
Y128999D01*
X239362Y127087D02*
Y128989D01*
X239381Y127098D02*
Y128978D01*
X239401Y127108D02*
Y128967D01*
X239421Y127120D02*
Y128956D01*
X239440Y127132D02*
Y128944D01*
X239460Y127145D02*
Y128931D01*
X239480Y127158D02*
Y128918D01*
X239499Y127172D02*
Y128904D01*
X239519Y127187D02*
Y128889D01*
X239539Y127202D02*
Y128874D01*
X239558Y127218D02*
Y128857D01*
X239578Y127235D02*
Y128841D01*
X239598Y127253D02*
Y128823D01*
X239618Y127272D02*
Y128804D01*
X239637Y127292D02*
Y128784D01*
X239657Y127313D02*
Y128763D01*
X239677Y127334D02*
Y128742D01*
X239696Y127358D02*
Y128718D01*
X239716Y127382D02*
Y128694D01*
X239736Y127409D02*
Y128667D01*
X239755Y127437D02*
Y128639D01*
X239775Y127467D02*
Y128609D01*
X239795Y127499D02*
Y128577D01*
X239814Y127535D02*
Y128541D01*
X239834Y127573D02*
Y128502D01*
X239854Y127617D02*
Y128459D01*
X239873Y127666D02*
Y128410D01*
X239893Y127724D02*
Y128352D01*
X239913Y127798D02*
Y128278D01*
X239933Y127911D02*
Y128165D01*
X236224Y125479D02*
X236225Y125445D01*
X236229Y125411*
X236235Y125377*
X236243Y125344*
X236254Y125311*
X236267Y125279*
X236283Y125249*
X236300Y125219*
X236320Y125191*
X236341Y125164*
X236365Y125139*
X236390Y125116*
X236416Y125094*
X236444Y125075*
X236474Y125057*
X236505Y125042*
X236536Y125029*
X236569Y125018*
X236602Y125010*
X236636Y125003*
X236670Y125000*
X236704Y124999*
X238870*
X238920Y125000*
X238971Y125003*
X239022Y125009*
X239072Y125018*
X239122Y125029*
X239171Y125042*
X239220Y125057*
X239268Y125075*
X239314Y125095*
X239360Y125118*
X239405Y125142*
X239448Y125169*
X239491Y125197*
X239531Y125228*
X239571Y125260*
X239608Y125294*
X239608D02*
X239645Y125330D01*
X239679Y125368*
X239711Y125407*
X239742Y125448*
X239770Y125490*
X239797Y125534*
X239821Y125579*
X239844Y125625*
X239864Y125671*
X239881Y125719*
X239897Y125768*
X239910Y125817*
X239921Y125867*
X239929Y125917*
X239936Y125968*
X239939Y126018*
X239940Y126069*
X239939Y126120*
X239936Y126171*
X239929Y126222*
X239921Y126272*
X239910Y126322*
X239897Y126371*
X239881Y126420*
X239864Y126467*
X239844Y126514*
X239821Y126560*
X239797Y126605*
X239770Y126648*
X239742Y126691*
X239711Y126731*
X239679Y126771*
X239645Y126808*
X239608Y126844*
X239608D02*
X239571Y126879D01*
X239531Y126911*
X239491Y126942*
X239448Y126970*
X239405Y126997*
X239360Y127021*
X239314Y127044*
X239268Y127064*
X239220Y127081*
X239171Y127097*
X239122Y127110*
X239072Y127121*
X239022Y127129*
X238971Y127135*
X238920Y127139*
X238870Y127140*
X236704*
X236670Y127139*
X236636Y127135*
X236602Y127129*
X236569Y127121*
X236536Y127110*
X236505Y127097*
X236474Y127082*
X236444Y127064*
X236416Y127045*
X236390Y127023*
X236365Y127000*
X236341Y126975*
X236320Y126948*
X236300Y126920*
X236283Y126890*
X236267Y126860*
X236254Y126828*
X236243Y126795*
X236235Y126762*
X236229Y126728*
X236225Y126694*
X236224Y126660*
Y125479*
X236232Y125394D02*
Y126745D01*
X236251Y125319D02*
Y126820D01*
X236271Y125272D02*
Y126867D01*
X236291Y125235D02*
Y126904D01*
X236310Y125204D02*
Y126935D01*
X236330Y125178D02*
Y126961D01*
X236350Y125155D02*
Y126984D01*
X236370Y125135D02*
Y127004D01*
X236389Y125116D02*
Y127023D01*
X236409Y125100D02*
Y127039D01*
X236429Y125086D02*
Y127053D01*
X236448Y125073D02*
Y127066D01*
X236468Y125061D02*
Y127078D01*
X236488Y125050D02*
Y127088D01*
X236507Y125041D02*
Y127098D01*
X236527Y125033D02*
Y127106D01*
X236547Y125025D02*
Y127113D01*
X236566Y125019D02*
Y127120D01*
X236586Y125014D02*
Y127125D01*
X236606Y125009D02*
Y127130D01*
X236625Y125005D02*
Y127134D01*
X236645Y125002D02*
Y127136D01*
X236665Y125000D02*
Y127139D01*
X236684Y124999D02*
Y127140D01*
X236704Y124999D02*
Y127140D01*
X236724Y124999D02*
Y127140D01*
X236744Y124999D02*
Y127140D01*
X236763Y124999D02*
Y127140D01*
X236783Y124999D02*
Y127140D01*
X236803Y124999D02*
Y127140D01*
X236822Y124999D02*
Y127140D01*
X236842Y124999D02*
Y127140D01*
X236862Y124999D02*
Y127140D01*
X236881Y124999D02*
Y127140D01*
X236901Y124999D02*
Y127140D01*
X236921Y124999D02*
Y127140D01*
X236940Y124999D02*
Y127140D01*
X236960Y124999D02*
Y127140D01*
X236980Y124999D02*
Y127140D01*
X236999Y124999D02*
Y127140D01*
X237019Y124999D02*
Y127140D01*
X237039Y124999D02*
Y127140D01*
X237058Y124999D02*
Y127140D01*
X237078Y124999D02*
Y127140D01*
X237098Y124999D02*
Y127140D01*
X237118Y124999D02*
Y127140D01*
X237137Y124999D02*
Y127140D01*
X237157Y124999D02*
Y127140D01*
X237177Y124999D02*
Y127140D01*
X237196Y124999D02*
Y127140D01*
X237216Y124999D02*
Y127140D01*
X237236Y124999D02*
Y127140D01*
X237255Y124999D02*
Y127140D01*
X237275Y124999D02*
Y127140D01*
X237295Y124999D02*
Y127140D01*
X237314Y124999D02*
Y127140D01*
X237334Y124999D02*
Y127140D01*
X237354Y124999D02*
Y127140D01*
X237373Y124999D02*
Y127140D01*
X237393Y124999D02*
Y127140D01*
X237413Y124999D02*
Y127140D01*
X237433Y124999D02*
Y127140D01*
X237452Y124999D02*
Y127140D01*
X237472Y124999D02*
Y127140D01*
X237492Y124999D02*
Y127140D01*
X237511Y124999D02*
Y127140D01*
X237531Y124999D02*
Y127140D01*
X237551Y124999D02*
Y127140D01*
X237570Y124999D02*
Y127140D01*
X237590Y124999D02*
Y127140D01*
X237610Y124999D02*
Y127140D01*
X237629Y124999D02*
Y127140D01*
X237649Y124999D02*
Y127140D01*
X237669Y124999D02*
Y127140D01*
X237688Y124999D02*
Y127140D01*
X237708Y124999D02*
Y127140D01*
X237728Y124999D02*
Y127140D01*
X237747Y124999D02*
Y127140D01*
X237767Y124999D02*
Y127140D01*
X237787Y124999D02*
Y127140D01*
X237807Y124999D02*
Y127140D01*
X237826Y124999D02*
Y127140D01*
X237846Y124999D02*
Y127140D01*
X237866Y124999D02*
Y127140D01*
X237885Y124999D02*
Y127140D01*
X237905Y124999D02*
Y127140D01*
X237925Y124999D02*
Y127140D01*
X237944Y124999D02*
Y127140D01*
X237964Y124999D02*
Y127140D01*
X237984Y124999D02*
Y127140D01*
X238003Y124999D02*
Y127140D01*
X238023Y124999D02*
Y127140D01*
X238043Y124999D02*
Y127140D01*
X238062Y124999D02*
Y127140D01*
X238082Y124999D02*
Y127140D01*
X238102Y124999D02*
Y127140D01*
X238121Y124999D02*
Y127140D01*
X238141Y124999D02*
Y127140D01*
X238161Y124999D02*
Y127140D01*
X238181Y124999D02*
Y127140D01*
X238200Y124999D02*
Y127140D01*
X238220Y124999D02*
Y127140D01*
X238240Y124999D02*
Y127140D01*
X238259Y124999D02*
Y127140D01*
X238279Y124999D02*
Y127140D01*
X238299Y124999D02*
Y127140D01*
X238318Y124999D02*
Y127140D01*
X238338Y124999D02*
Y127140D01*
X238358Y124999D02*
Y127140D01*
X238377Y124999D02*
Y127140D01*
X238397Y124999D02*
Y127140D01*
X238417Y124999D02*
Y127140D01*
X238436Y124999D02*
Y127140D01*
X238456Y124999D02*
Y127140D01*
X238476Y124999D02*
Y127140D01*
X238496Y124999D02*
Y127140D01*
X238515Y124999D02*
Y127140D01*
X238535Y124999D02*
Y127140D01*
X238555Y124999D02*
Y127140D01*
X238574Y124999D02*
Y127140D01*
X238594Y124999D02*
Y127140D01*
X238614Y124999D02*
Y127140D01*
X238633Y124999D02*
Y127140D01*
X238653Y124999D02*
Y127140D01*
X238673Y124999D02*
Y127140D01*
X238692Y124999D02*
Y127140D01*
X238712Y124999D02*
Y127140D01*
X238732Y124999D02*
Y127140D01*
X238751Y124999D02*
Y127140D01*
X238771Y124999D02*
Y127140D01*
X238791Y124999D02*
Y127140D01*
X238810Y124999D02*
Y127140D01*
X238830Y124999D02*
Y127140D01*
X238850Y124999D02*
Y127140D01*
X238870Y124999D02*
Y127140D01*
X238889Y124999D02*
Y127140D01*
X238909Y125000D02*
Y127139D01*
X238929Y125000D02*
Y127139D01*
X238948Y125002D02*
Y127137D01*
X238968Y125003D02*
Y127136D01*
X238988Y125005D02*
Y127134D01*
X239007Y125008D02*
Y127131D01*
X239027Y125010D02*
Y127129D01*
X239047Y125014D02*
Y127125D01*
X239066Y125017D02*
Y127122D01*
X239086Y125021D02*
Y127118D01*
X239106Y125025D02*
Y127114D01*
X239125Y125030D02*
Y127109D01*
X239145Y125035D02*
Y127104D01*
X239165Y125040D02*
Y127099D01*
X239184Y125046D02*
Y127093D01*
X239204Y125052D02*
Y127086D01*
X239224Y125059D02*
Y127080D01*
X239244Y125066D02*
Y127073D01*
X239263Y125074D02*
Y127065D01*
X239283Y125082D02*
Y127057D01*
X239303Y125090D02*
Y127049D01*
X239322Y125099D02*
Y127040D01*
X239342Y125109D02*
Y127030D01*
X239362Y125118D02*
Y127020D01*
X239381Y125129D02*
Y127010D01*
X239401Y125140D02*
Y126999D01*
X239421Y125152D02*
Y126987D01*
X239440Y125164D02*
Y126975D01*
X239460Y125176D02*
Y126962D01*
X239480Y125190D02*
Y126949D01*
X239499Y125204D02*
Y126935D01*
X239519Y125218D02*
Y126920D01*
X239539Y125234D02*
Y126905D01*
X239558Y125250D02*
Y126889D01*
X239578Y125267D02*
Y126872D01*
X239598Y125285D02*
Y126854D01*
X239618Y125303D02*
Y126835D01*
X239637Y125323D02*
Y126816D01*
X239657Y125344D02*
Y126795D01*
X239677Y125366D02*
Y126773D01*
X239696Y125389D02*
Y126750D01*
X239716Y125414D02*
Y126725D01*
X239736Y125440D02*
Y126699D01*
X239755Y125468D02*
Y126671D01*
X239775Y125498D02*
Y126641D01*
X239795Y125530D02*
Y126608D01*
X239814Y125566D02*
Y126573D01*
X239834Y125605D02*
Y126534D01*
X239854Y125648D02*
Y126491D01*
X239873Y125698D02*
Y126441D01*
X239893Y125756D02*
Y126383D01*
X239913Y125829D02*
Y126310D01*
X239933Y125942D02*
Y126197D01*
X239767Y125676D02*
X239768Y125641D01*
X239772Y125607*
X239778Y125574*
X239787Y125540*
X239797Y125508*
X239811Y125476*
X239826Y125446*
X239843Y125416*
X239863Y125388*
X239884Y125361*
X239908Y125336*
X239933Y125313*
X239960Y125291*
X239988Y125272*
X240017Y125254*
X240048Y125239*
X240080Y125226*
X240112Y125215*
X240145Y125206*
X240179Y125200*
X240213Y125197*
X240247Y125195*
X243751*
X243786Y125197*
X243820Y125200*
X243854Y125206*
X243887Y125215*
X243919Y125226*
X243951Y125239*
X243982Y125254*
X244011Y125272*
X244039Y125291*
X244066Y125313*
X244091Y125336*
X244524Y125769*
X244547Y125794*
X244569Y125821*
X244589Y125849*
X244606Y125879*
X244621Y125909*
X244635Y125941*
X244645Y125973*
X244654Y126007*
X244660Y126040*
X244664Y126075*
X244665Y126109*
Y132369*
X244664Y132403*
X244660Y132437*
X244654Y132471*
X244645Y132504*
X244635Y132537*
X244621Y132568*
X244606Y132599*
X244589Y132628*
X244569Y132656*
X244569D02*
X244547Y132683D01*
X244524Y132708*
X244499Y132732*
X244472Y132753*
X244444Y132773*
X244415Y132790*
X244384Y132806*
X244352Y132819*
X244320Y132830*
X244287Y132838*
X244253Y132844*
X244219Y132848*
X244184Y132849*
X240247*
X240213Y132848*
X240179Y132844*
X240145Y132838*
X240112Y132830*
X240080Y132819*
X240048Y132806*
X240017Y132790*
X239988Y132773*
X239960Y132753*
X239933Y132732*
X239908Y132708*
X239884Y132683*
X239863Y132656*
X239863D02*
X239843Y132628D01*
X239826Y132599*
X239811Y132568*
X239797Y132537*
X239787Y132504*
X239778Y132471*
X239772Y132437*
X239768Y132403*
X239767Y132369*
Y125676*
X239775Y125591D02*
Y132454D01*
X239795Y125516D02*
Y132528D01*
X239814Y125469D02*
Y132576D01*
X239834Y125432D02*
Y132613D01*
X239854Y125401D02*
Y132643D01*
X239873Y125375D02*
Y132670D01*
X239893Y125352D02*
Y132693D01*
X239913Y125331D02*
Y132713D01*
X239933Y125313D02*
Y132731D01*
X239952Y125297D02*
Y132747D01*
X239972Y125283D02*
Y132762D01*
X239992Y125269D02*
Y132775D01*
X240011Y125258D02*
Y132787D01*
X240031Y125247D02*
Y132797D01*
X240051Y125238D02*
Y132807D01*
X240070Y125230D02*
Y132815D01*
X240090Y125222D02*
Y132822D01*
X240110Y125216D02*
Y132829D01*
X240129Y125210D02*
Y132834D01*
X240149Y125206D02*
Y132839D01*
X240169Y125202D02*
Y132842D01*
X240188Y125199D02*
Y132845D01*
X240208Y125197D02*
Y132847D01*
X240228Y125196D02*
Y132848D01*
X240247Y125195D02*
Y132849D01*
X240267Y125195D02*
Y132849D01*
X240287Y125195D02*
Y132849D01*
X240307Y125195D02*
Y132849D01*
X240326Y125195D02*
Y132849D01*
X240346Y125195D02*
Y132849D01*
X240366Y125195D02*
Y132849D01*
X240385Y125195D02*
Y132849D01*
X240405Y125195D02*
Y132849D01*
X240425Y125195D02*
Y132849D01*
X240444Y125195D02*
Y132849D01*
X240464Y125195D02*
Y132849D01*
X240484Y125195D02*
Y132849D01*
X240503Y125195D02*
Y132849D01*
X240523Y125195D02*
Y132849D01*
X240543Y125195D02*
Y132849D01*
X240562Y125195D02*
Y132849D01*
X240582Y125195D02*
Y132849D01*
X240602Y125195D02*
Y132849D01*
X240621Y125195D02*
Y132849D01*
X240641Y125195D02*
Y132849D01*
X240661Y125195D02*
Y132849D01*
X240681Y125195D02*
Y132849D01*
X240700Y125195D02*
Y132849D01*
X240720Y125195D02*
Y132849D01*
X240740Y125195D02*
Y132849D01*
X240759Y125195D02*
Y132849D01*
X240779Y125195D02*
Y132849D01*
X240799Y125195D02*
Y132849D01*
X240818Y125195D02*
Y132849D01*
X240838Y125195D02*
Y132849D01*
X240858Y125195D02*
Y132849D01*
X240877Y125195D02*
Y132849D01*
X240897Y125195D02*
Y132849D01*
X240917Y125195D02*
Y132849D01*
X240936Y125195D02*
Y132849D01*
X240956Y125195D02*
Y132849D01*
X240976Y125195D02*
Y132849D01*
X240996Y125195D02*
Y132849D01*
X241015Y125195D02*
Y132849D01*
X241035Y125195D02*
Y132849D01*
X241055Y125195D02*
Y132849D01*
X241074Y125195D02*
Y132849D01*
X241094Y125195D02*
Y132849D01*
X241114Y125195D02*
Y132849D01*
X241133Y125195D02*
Y132849D01*
X241153Y125195D02*
Y132849D01*
X241173Y125195D02*
Y132849D01*
X241192Y125195D02*
Y132849D01*
X241212Y125195D02*
Y132849D01*
X241232Y125195D02*
Y132849D01*
X241251Y125195D02*
Y132849D01*
X241271Y125195D02*
Y132849D01*
X241291Y125195D02*
Y132849D01*
X241310Y125195D02*
Y132849D01*
X241330Y125195D02*
Y132849D01*
X241350Y125195D02*
Y132849D01*
X241370Y125195D02*
Y132849D01*
X241389Y125195D02*
Y132849D01*
X241409Y125195D02*
Y132849D01*
X241429Y125195D02*
Y132849D01*
X241448Y125195D02*
Y132849D01*
X241468Y125195D02*
Y132849D01*
X241488Y125195D02*
Y132849D01*
X241507Y125195D02*
Y132849D01*
X241527Y125195D02*
Y132849D01*
X241547Y125195D02*
Y132849D01*
X241566Y125195D02*
Y132849D01*
X241586Y125195D02*
Y132849D01*
X241606Y125195D02*
Y132849D01*
X241625Y125195D02*
Y132849D01*
X241645Y125195D02*
Y132849D01*
X241665Y125195D02*
Y132849D01*
X241684Y125195D02*
Y132849D01*
X241704Y125195D02*
Y132849D01*
X241724Y125195D02*
Y132849D01*
X241744Y125195D02*
Y132849D01*
X241763Y125195D02*
Y132849D01*
X241783Y125195D02*
Y132849D01*
X241803Y125195D02*
Y132849D01*
X241822Y125195D02*
Y132849D01*
X241842Y125195D02*
Y132849D01*
X241862Y125195D02*
Y132849D01*
X241881Y125195D02*
Y132849D01*
X241901Y125195D02*
Y132849D01*
X241921Y125195D02*
Y132849D01*
X241940Y125195D02*
Y132849D01*
X241960Y125195D02*
Y132849D01*
X241980Y125195D02*
Y132849D01*
X241999Y125195D02*
Y132849D01*
X242019Y125195D02*
Y132849D01*
X242039Y125195D02*
Y132849D01*
X242058Y125195D02*
Y132849D01*
X242078Y125195D02*
Y132849D01*
X242098Y125195D02*
Y132849D01*
X242118Y125195D02*
Y132849D01*
X242137Y125195D02*
Y132849D01*
X242157Y125195D02*
Y132849D01*
X242177Y125195D02*
Y132849D01*
X242196Y125195D02*
Y132849D01*
X242216Y125195D02*
Y132849D01*
X242236Y125195D02*
Y132849D01*
X242255Y125195D02*
Y132849D01*
X242275Y125195D02*
Y132849D01*
X242295Y125195D02*
Y132849D01*
X242314Y125195D02*
Y132849D01*
X242334Y125195D02*
Y132849D01*
X242354Y125195D02*
Y132849D01*
X242373Y125195D02*
Y132849D01*
X242393Y125195D02*
Y132849D01*
X242413Y125195D02*
Y132849D01*
X242433Y125195D02*
Y132849D01*
X242452Y125195D02*
Y132849D01*
X242472Y125195D02*
Y132849D01*
X242492Y125195D02*
Y132849D01*
X242511Y125195D02*
Y132849D01*
X242531Y125195D02*
Y132849D01*
X242551Y125195D02*
Y132849D01*
X242570Y125195D02*
Y132849D01*
X242590Y125195D02*
Y132849D01*
X242610Y125195D02*
Y132849D01*
X242629Y125195D02*
Y132849D01*
X242649Y125195D02*
Y132849D01*
X242669Y125195D02*
Y132849D01*
X242688Y125195D02*
Y132849D01*
X242708Y125195D02*
Y132849D01*
X242728Y125195D02*
Y132849D01*
X242747Y125195D02*
Y132849D01*
X242767Y125195D02*
Y132849D01*
X242787Y125195D02*
Y132849D01*
X242807Y125195D02*
Y132849D01*
X242826Y125195D02*
Y132849D01*
X242846Y125195D02*
Y132849D01*
X242866Y125195D02*
Y132849D01*
X242885Y125195D02*
Y132849D01*
X242905Y125195D02*
Y132849D01*
X242925Y125195D02*
Y132849D01*
X242944Y125195D02*
Y132849D01*
X242964Y125195D02*
Y132849D01*
X242984Y125195D02*
Y132849D01*
X243003Y125195D02*
Y132849D01*
X243023Y125195D02*
Y132849D01*
X243043Y125195D02*
Y132849D01*
X243062Y125195D02*
Y132849D01*
X243082Y125195D02*
Y132849D01*
X243102Y125195D02*
Y132849D01*
X243121Y125195D02*
Y132849D01*
X243141Y125195D02*
Y132849D01*
X243161Y125195D02*
Y132849D01*
X243181Y125195D02*
Y132849D01*
X243200Y125195D02*
Y132849D01*
X243220Y125195D02*
Y132849D01*
X243240Y125195D02*
Y132849D01*
X243259Y125195D02*
Y132849D01*
X243279Y125195D02*
Y132849D01*
X243299Y125195D02*
Y132849D01*
X243318Y125195D02*
Y132849D01*
X243338Y125195D02*
Y132849D01*
X243358Y125195D02*
Y132849D01*
X243377Y125195D02*
Y132849D01*
X243397Y125195D02*
Y132849D01*
X243417Y125195D02*
Y132849D01*
X243436Y125195D02*
Y132849D01*
X243456Y125195D02*
Y132849D01*
X243476Y125195D02*
Y132849D01*
X243496Y125195D02*
Y132849D01*
X243515Y125195D02*
Y132849D01*
X243535Y125195D02*
Y132849D01*
X243555Y125195D02*
Y132849D01*
X243574Y125195D02*
Y132849D01*
X243594Y125195D02*
Y132849D01*
X243614Y125195D02*
Y132849D01*
X243633Y125195D02*
Y132849D01*
X243653Y125195D02*
Y132849D01*
X243673Y125195D02*
Y132849D01*
X243692Y125195D02*
Y132849D01*
X243712Y125195D02*
Y132849D01*
X243732Y125195D02*
Y132849D01*
X243751Y125195D02*
Y132849D01*
X243771Y125196D02*
Y132849D01*
X243791Y125197D02*
Y132849D01*
X243810Y125199D02*
Y132849D01*
X243830Y125202D02*
Y132849D01*
X243850Y125206D02*
Y132849D01*
X243870Y125210D02*
Y132849D01*
X243889Y125216D02*
Y132849D01*
X243909Y125222D02*
Y132849D01*
X243929Y125230D02*
Y132849D01*
X243948Y125238D02*
Y132849D01*
X243968Y125247D02*
Y132849D01*
X243988Y125258D02*
Y132849D01*
X244007Y125269D02*
Y132849D01*
X244027Y125283D02*
Y132849D01*
X244047Y125297D02*
Y132849D01*
X244066Y125313D02*
Y132849D01*
X244086Y125331D02*
Y132849D01*
X244106Y125351D02*
Y132849D01*
X244125Y125370D02*
Y132849D01*
X244145Y125390D02*
Y132849D01*
X244165Y125410D02*
Y132849D01*
X244184Y125430D02*
Y132849D01*
X244204Y125449D02*
Y132848D01*
X244224Y125469D02*
Y132847D01*
X244244Y125489D02*
Y132845D01*
X244263Y125508D02*
Y132842D01*
X244283Y125528D02*
Y132839D01*
X244303Y125548D02*
Y132834D01*
X244322Y125567D02*
Y132829D01*
X244342Y125587D02*
Y132822D01*
X244362Y125607D02*
Y132815D01*
X244381Y125626D02*
Y132807D01*
X244401Y125646D02*
Y132797D01*
X244421Y125666D02*
Y132787D01*
X244440Y125685D02*
Y132775D01*
X244460Y125705D02*
Y132762D01*
X244480Y125725D02*
Y132747D01*
X244499Y125745D02*
Y132731D01*
X244519Y125764D02*
Y132713D01*
X244539Y125785D02*
Y132693D01*
X244558Y125808D02*
Y132670D01*
X244578Y125834D02*
Y132643D01*
X244598Y125865D02*
Y132613D01*
X244618Y125902D02*
Y132576D01*
X244637Y125949D02*
Y132528D01*
X244657Y126024D02*
Y132454D01*
G54D76*
G54D77*
X144310Y194572D03*
Y191422D03*
Y188273D03*
Y185123D03*
Y181973D03*
Y178824D03*
Y175674D03*
Y172525D03*
X177381D03*
Y175674D03*
Y178824D03*
Y181973D03*
Y185123D03*
Y188273D03*
Y191422D03*
Y194572D03*
G54D78*
X149822Y167013D03*
X152971D03*
X156121D03*
X159270D03*
X162420D03*
X165570D03*
X168719D03*
X171869D03*
Y200084D03*
X168719D03*
X165570D03*
X162420D03*
X159270D03*
X156121D03*
X152971D03*
X149822D03*
G54D79*
X204006Y124610D03*
X211487D03*
X231014Y138796D03*
X238101D03*
X251327Y119183D03*
X244240D03*
G54D80*
X203857Y132671D03*
Y138576D03*
X165541Y148156D03*
Y142251D03*
X257000Y267953D03*
Y262047D03*
G54D81*
X131483Y107037D03*
X170606Y128794D03*
X266700Y246210D03*
X170863Y117494D03*
X241814Y271292D03*
Y263418D03*
Y255544D03*
Y247670D03*
Y239796D03*
Y231922D03*
Y224048D03*
Y216174D03*
Y208300D03*
X279122Y213959D03*
Y223959D03*
X154423Y141052D03*
Y131052D03*
X121483Y107037D03*
X155200Y216174D03*
Y224048D03*
Y231922D03*
Y239796D03*
Y247670D03*
Y255544D03*
Y263418D03*
Y271292D03*
Y279166D03*
G54D82*
X229516Y123476D03*
Y130169D03*
G54D83*
X210860Y147980D03*
Y141680D03*
X186868Y186203D03*
Y179904D03*
X172259Y148514D03*
Y142214D03*
G54D84*
X167678Y215269D03*
X177678D03*
X132229Y165662D03*
Y185662D03*
Y175662D03*
X187678Y215269D03*
X177678D03*
G54D85*
X201008Y225072D03*
Y221135D03*
X207307Y223103D03*
G54D86*
X248910Y220100D03*
Y226399D03*
X194415Y215595D03*
Y221895D03*
G54D87*
X133476Y240011D03*
X120877D03*
G54D88*
X280364Y235484D03*
X268553D03*
G54D89*
X250000Y268346D03*
Y261654D03*
G54D90*
X266700Y259990D03*
X241814Y279166D03*
X155200Y208300D03*
G54D91*
X246350Y126069D03*
Y128038D03*
Y130006D03*
Y131975D03*
X238082D03*
Y130006D03*
Y128038D03*
Y126069D03*
G54D92*
X242216Y129022D03*
G54D93*
X194381Y165523D03*
X264025Y114391D03*
G54D94*
X194381Y155523D03*
X204381Y165523D03*
Y155523D03*
X214381Y165523D03*
Y155523D03*
X274025Y114391D03*
X264025Y124391D03*
X274025D03*
X264025Y134391D03*
X274025D03*
X264025Y144391D03*
X274025D03*
X264025Y154391D03*
X274025D03*
X264025Y164391D03*
X274025D03*
X264025Y174391D03*
X274025D03*
X264025Y184391D03*
X274025D03*
X264025Y194391D03*
X274025D03*
X264025Y204391D03*
X274025D03*
G54D95*
X227933Y192618D03*
Y198917D03*
X220613Y198940D03*
Y192641D03*
G54D96*
X226825Y173271D03*
Y184688D03*
G54D97*
X196917Y143199D03*
X194358D03*
X191799D03*
X189240D03*
X186681D03*
X184122D03*
X181563D03*
X179004D03*
Y119971D03*
X181563D03*
X184122D03*
X186681D03*
X189240D03*
X191799D03*
X194358D03*
X196917D03*
G54D98*
X142261Y143283D03*
Y148283D03*
Y153283D03*
Y158283D03*
X121001D03*
Y153283D03*
Y148283D03*
Y143283D03*
X212243Y193290D03*
Y198290D03*
Y203290D03*
Y208290D03*
X190983D03*
Y203290D03*
Y198290D03*
Y193290D03*
G54D99*
X261601Y224138D03*
Y216658D03*
X270656Y220398D03*
G54D100*
X253616Y126982D03*
Y134462D03*
X244975Y147799D03*
Y155279D03*
G54D101*
X123845Y181840D03*
Y193257D03*
G54D102*
X119228Y127830D03*
Y116019D03*
G54D103*
X128110Y122000D03*
X204000Y118047D03*
X181635Y112169D03*
X145852Y209054D03*
X175854Y208740D03*
X142296Y215233D03*
X143000Y165000D03*
X200236Y175484D03*
X179115Y202950D03*
X201000Y187000D03*
X178000Y167000D03*
X184646Y159055D03*
X178246Y156808D03*
X160287Y158777D03*
X193420Y179970D03*
X155350Y154439D03*
X149126Y157626D03*
X184881Y172183D03*
X252000Y194000D03*
X253000Y147000D03*
X251000Y154000D03*
X251864Y204853D03*
X253973Y140007D03*
X222000Y204000D03*
X138965Y220953D03*
X133499Y224801D03*
X120904D03*
X181233Y234948D03*
X181624Y227221D03*
X174833Y234967D03*
X0Y0D02*
M02*
