*
*
G04 PADS 9.5 Build Number: 522968 generated Gerber (RS-274-X) file*
G04 PC Version=2.1*
*
%IN "Lock3_routedTry3_wPlane"*%
*
%MOIN*%
*
%FSLAX35Y35*%
*
*
*
*
G04 PC Standard Apertures*
*
*
G04 Thermal Relief Aperture macro.*
%AMTER*
1,1,$1,0,0*
1,0,$1-$2,0,0*
21,0,$3,$4,0,0,45*
21,0,$3,$4,0,0,135*
%
*
*
G04 Annular Aperture macro.*
%AMANN*
1,1,$1,0,0*
1,0,$2,0,0*
%
*
*
G04 Odd Aperture macro.*
%AMODD*
1,1,$1,0,0*
1,0,$1-0.005,0,0*
%
*
*
G04 PC Custom Aperture Macros*
*
*
*
*
*
*
G04 PC Aperture Table*
*
%ADD076C,0.005*%
%ADD081C,0.06315*%
%ADD084C,0.04543*%
%ADD090R,0.06315X0.06315*%
%ADD093R,0.07299X0.07299*%
%ADD094C,0.07299*%
%ADD103C,0.046*%
*
*
*
*
G04 PC Circuitry*
G04 Layer Name Lock3_routedTry3_wPlane - circuitry*
%LPD*%
*
*
G04 PC Custom Flashes*
G04 Layer Name Lock3_routedTry3_wPlane - flashes*
%LPD*%
*
*
G04 PC Circuitry*
G04 Layer Name Lock3_routedTry3_wPlane - circuitry*
%LPD*%
*
G54D76*
G54D81*
G01X131483Y107037D03*
X170606Y128794D03*
X266700Y246210D03*
X170863Y117494D03*
X241814Y271292D03*
Y263418D03*
Y255544D03*
Y247670D03*
Y239796D03*
Y231922D03*
Y224048D03*
Y216174D03*
Y208300D03*
X279122Y213959D03*
Y223959D03*
X154423Y141052D03*
Y131052D03*
X121483Y107037D03*
X155200Y216174D03*
Y224048D03*
Y231922D03*
Y239796D03*
Y247670D03*
Y255544D03*
Y263418D03*
Y271292D03*
Y279166D03*
X170606Y128794D03*
X170863Y117494D03*
X279122Y213959D03*
Y223959D03*
X154423Y141052D03*
Y131052D03*
X121483Y107037D03*
G54D84*
X167678Y215269D03*
X177678D03*
X132229Y165662D03*
Y185662D03*
Y175662D03*
X187678Y215269D03*
X167678D03*
X132229Y165662D03*
Y185662D03*
Y175662D03*
G54D90*
X266700Y259990D03*
X241814Y279166D03*
X155200Y208300D03*
G54D93*
X194381Y165523D03*
X264025Y114391D03*
G54D94*
X194381Y155523D03*
X204381Y165523D03*
Y155523D03*
X214381Y165523D03*
Y155523D03*
X274025Y114391D03*
X264025Y124391D03*
X274025D03*
X264025Y134391D03*
X274025D03*
X264025Y144391D03*
X274025D03*
X264025Y154391D03*
X274025D03*
X264025Y164391D03*
X274025D03*
X264025Y174391D03*
X274025D03*
X264025Y184391D03*
X274025D03*
X264025Y194391D03*
X274025D03*
X264025Y204391D03*
X274025D03*
G54D103*
X222000Y110047D03*
X123827Y175676D03*
X223211Y165739D03*
X0Y0D02*
M02*
